<svg width="49" height="49" viewBox="0 0 49 49" fill="none" xmlns="http://www.w3.org/2000/svg">
<g id="Group 5358">
<path id="background" d="M47.5518 24.4011C47.5518 37.1869 37.1869 47.5518 24.4011 47.5518C11.6154 47.5518 1.25049 37.1869 1.25049 24.4011C1.25049 11.6154 11.6154 1.25049 24.4011 1.25049C37.1869 1.25049 47.5518 11.6154 47.5518 24.4011Z" fill="white" stroke="url(#paint0_linear_845_3204)" stroke-width="2.50098"/>
<path id="arrow-bottom" d="M37.3801 27.9098L37.3915 27.915L37.403 27.92C37.5397 27.9789 37.6671 28.0964 37.7549 28.2829C37.8098 28.4475 37.8009 28.6303 37.7428 28.7643L38.8901 29.2618L37.7428 28.7643C37.6888 28.8889 37.6417 28.9539 37.5984 28.9983L38.4934 29.8716L37.5984 28.9983L30.062 36.7222C29.9347 36.8526 29.7906 36.904 29.643 36.904C29.4956 36.904 29.3515 36.8527 29.2241 36.7222L28.3291 37.5955L29.2241 36.7222C28.9792 36.4711 28.9792 36.0267 29.2241 35.7756L33.5874 31.3038L35.6596 29.18H32.6923H11.6201C11.323 29.18 11.0112 28.9052 11.0112 28.525C11.0112 28.1447 11.323 27.8699 11.6201 27.8699H37.1795C37.2599 27.8699 37.3297 27.8869 37.3801 27.9098Z" fill="url(#paint1_linear_845_3204)" stroke="url(#paint2_linear_845_3204)" stroke-width="2.50098"/>
<path id="arrow-top" d="M13.1379 19.62H16.1026H37.1593C37.4896 19.62 37.7916 19.9047 37.7916 20.2762C37.7916 20.6585 37.4789 20.9323 37.1841 20.9323H11.6435C11.5636 20.9323 11.4941 20.9154 11.444 20.8925L11.4326 20.8873L11.4211 20.8823C11.2782 20.8206 11.145 20.6944 11.0569 20.491C10.996 20.3505 10.996 20.1765 11.0569 20.036C11.111 19.911 11.1582 19.8458 11.2013 19.8015L18.7323 12.0733L17.8367 11.2006L18.7323 12.0733C18.9598 11.8398 19.3394 11.8398 19.567 12.0733C19.8122 12.325 19.8122 12.771 19.567 13.0227L15.207 17.4968L13.1379 19.62Z" fill="url(#paint3_linear_845_3204)" stroke="url(#paint4_linear_845_3204)" stroke-width="2.50098"/>
</g>
<defs>
<linearGradient id="paint0_linear_845_3204" x1="-13.2322" y1="24.4011" x2="62.7522" y2="24.4011" gradientUnits="userSpaceOnUse">
<stop stop-color="#FFD94A"/>
<stop offset="0.520833" stop-color="#F74545"/>
<stop offset="1" stop-color="#95649D"/>
</linearGradient>
<linearGradient id="paint1_linear_845_3204" x1="1.82141" y1="32.3869" x2="47.412" y2="32.3869" gradientUnits="userSpaceOnUse">
<stop stop-color="#FFD94A"/>
<stop offset="0.520833" stop-color="#F74545"/>
<stop offset="1" stop-color="#95649D"/>
</linearGradient>
<linearGradient id="paint2_linear_845_3204" x1="1.82141" y1="32.3869" x2="47.412" y2="32.3869" gradientUnits="userSpaceOnUse">
<stop stop-color="#FFD94A"/>
<stop offset="0.520833" stop-color="#F74545"/>
<stop offset="1" stop-color="#95649D"/>
</linearGradient>
<linearGradient id="paint3_linear_845_3204" x1="1.82141" y1="16.4152" x2="47.412" y2="16.4152" gradientUnits="userSpaceOnUse">
<stop stop-color="#FFD94A"/>
<stop offset="0.520833" stop-color="#F74545"/>
<stop offset="1" stop-color="#95649D"/>
</linearGradient>
<linearGradient id="paint4_linear_845_3204" x1="1.82141" y1="16.4152" x2="47.412" y2="16.4152" gradientUnits="userSpaceOnUse">
<stop stop-color="#FFD94A"/>
<stop offset="0.520833" stop-color="#F74545"/>
<stop offset="1" stop-color="#95649D"/>
</linearGradient>
</defs>
</svg>
