<svg width="16" height="16" viewBox="0 0 16 16" fill="none" xmlns="http://www.w3.org/2000/svg">
<path d="M13.3337 8.33325V4.53325C13.3337 3.41315 13.3337 2.85309 13.1157 2.42527C12.9239 2.04895 12.618 1.74299 12.2416 1.55124C11.8138 1.33325 11.2538 1.33325 10.1337 1.33325H5.86699C4.74689 1.33325 4.18683 1.33325 3.75901 1.55124C3.38269 1.74299 3.07673 2.04895 2.88498 2.42527C2.66699 2.85309 2.66699 3.41315 2.66699 4.53325V11.4666C2.66699 12.5867 2.66699 13.1467 2.88498 13.5746C3.07673 13.9509 3.38269 14.2569 3.75901 14.4486C4.18683 14.6666 4.74689 14.6666 5.86699 14.6666H8.00033M9.33366 7.33325H5.33366M6.66699 9.99992H5.33366M10.667 4.66659H5.33366M9.66699 12.6666L11.0003 13.9999L14.0003 10.9999" stroke="white" stroke-width="1.2" stroke-linecap="round" stroke-linejoin="round"/>
</svg>
