<svg width="338" height="200" viewBox="0 0 338 200" fill="none" xmlns="http://www.w3.org/2000/svg">
<g clip-path="url(#clip0_845_3032)">
<path d="M0 6.28958C0 2.81593 2.81595 0 6.28959 0H559.774C563.247 0 566.063 2.81595 566.063 6.28959V271.71C566.063 275.184 563.247 278 559.774 278H6.28961C2.81596 278 0 275.184 0 271.71V6.28958Z" fill="white"/>
<path d="M0.31448 6.28958C0.31448 2.98961 2.98963 0.31448 6.28959 0.31448H559.774C563.074 0.31448 565.749 2.98963 565.749 6.28959V271.71C565.749 275.01 563.074 277.686 559.774 277.686H6.28961C2.98964 277.686 0.31448 275.01 0.31448 271.71V6.28958Z" stroke="#B3C1D5" stroke-opacity="0.4" stroke-width="0.628959"/>
<path d="M24.6773 33.1267C27.3441 33.1267 29.1807 31.2524 29.1807 28.5479C29.1807 25.8056 27.3064 23.9313 24.5893 23.9313H21.369V33.1267H24.6773ZM24.4383 25.4157C26.3378 25.4157 27.4825 26.5981 27.4825 28.5479C27.4825 30.4599 26.3629 31.6424 24.5264 31.6424H22.9791V25.4157H24.4383ZM33.2341 33.2902C34.8568 33.2902 35.989 32.4726 36.2531 31.114H34.8317C34.6556 31.7053 34.1021 32.0323 33.2593 32.0323C32.2404 32.0323 31.6617 31.4788 31.5485 30.3844L36.228 30.3719V29.9064C36.228 27.9692 35.0455 26.7239 33.1838 26.7239C31.3598 26.7239 30.0893 28.0699 30.0893 30.0196C30.0893 31.9443 31.385 33.2902 33.2341 33.2902ZM33.1964 27.9818C34.1147 27.9818 34.7059 28.5479 34.7059 29.4033H31.5862C31.7372 28.4724 32.2907 27.9818 33.1964 27.9818ZM41.3557 26.8874C41.1042 26.8245 40.8903 26.7994 40.6765 26.7994C39.8462 26.7994 39.255 27.2145 38.9909 27.8309L38.9028 26.9252H37.4562V33.1267H38.9909V30.1077C38.9909 28.9001 39.6827 28.3089 40.7897 28.3089H41.3557V26.8874ZM43.9292 33.1267V29.7806C43.9292 28.7743 44.5078 28.1202 45.4513 28.1202C46.2437 28.1202 46.7595 28.6234 46.7595 29.6674V33.1267H48.2941V29.3026C48.2941 27.6925 47.4891 26.7239 45.9293 26.7239C45.0865 26.7239 44.3317 27.0887 43.9417 27.7177L43.816 26.9126H42.3945V33.1267H43.9292ZM50.5693 25.6673C51.0725 25.6673 51.4876 25.2521 51.4876 24.7364C51.4876 24.2206 51.0725 23.8181 50.5693 23.8181C50.041 23.8181 49.6259 24.2206 49.6259 24.7364C49.6259 25.2521 50.041 25.6673 50.5693 25.6673ZM49.802 33.1267H51.3366V26.9126H49.802V33.1267ZM56.2305 26.1704L55.2997 24.2961H53.8782L55.0984 26.1704H56.2305ZM55.7022 33.2902C57.3249 33.2902 58.457 32.4726 58.7212 31.114H57.2998C57.1237 31.7053 56.5702 32.0323 55.7274 32.0323C54.7085 32.0323 54.1298 31.4788 54.0166 30.3844L58.6961 30.3719V29.9064C58.6961 27.9692 57.5136 26.7239 55.6519 26.7239C53.8279 26.7239 52.5574 28.0699 52.5574 30.0196C52.5574 31.9443 53.8531 33.2902 55.7022 33.2902ZM55.6645 27.9818C56.5828 27.9818 57.174 28.5479 57.174 29.4033H54.0543C54.2053 28.4724 54.7588 27.9818 55.6645 27.9818ZM63.8238 26.8874C63.5723 26.8245 63.3584 26.7994 63.1446 26.7994C62.3143 26.7994 61.7231 27.2145 61.459 27.8309L61.3709 26.9252H59.9243V33.1267H61.459V30.1077C61.459 28.9001 62.1508 28.3089 63.2578 28.3089H63.8238V26.8874ZM67.4338 33.2902C69.0565 33.2902 70.1886 32.4726 70.4528 31.114H69.0313C68.8552 31.7053 68.3017 32.0323 67.4589 32.0323C66.44 32.0323 65.8614 31.4788 65.7482 30.3844L70.4276 30.3719V29.9064C70.4276 27.9692 69.2452 26.7239 67.3835 26.7239C65.5595 26.7239 64.289 28.0699 64.289 30.0196C64.289 31.9443 65.5846 33.2902 67.4338 33.2902ZM67.396 27.9818C68.3143 27.9818 68.9055 28.5479 68.9055 29.4033H65.7859C65.9368 28.4724 66.4903 27.9818 67.396 27.9818ZM71.1778 31.2398C71.1778 32.46 72.159 33.2902 73.7063 33.2902C75.2409 33.2902 76.3102 32.5103 76.3102 31.2524C76.3102 30.2964 75.7818 29.8184 74.7378 29.5794L73.6182 29.3152C73.0899 29.1894 72.8131 28.963 72.8131 28.6108C72.8131 28.1454 73.1654 27.8686 73.7692 27.8686C74.3604 27.8686 74.7126 28.2082 74.7252 28.7366H76.1844C76.1718 27.529 75.2283 26.7239 73.8321 26.7239C72.398 26.7239 71.3665 27.4535 71.3665 28.6737C71.3665 29.6674 71.9074 30.1958 73.027 30.4473L74.1465 30.7115C74.7 30.8373 74.8636 31.0637 74.8636 31.3782C74.8636 31.8311 74.4736 32.1204 73.7566 32.1204C73.0521 32.1204 72.6496 31.7807 72.637 31.2398H71.1778ZM80.5043 30.0071C80.5043 31.9443 81.9006 33.2777 83.8252 33.2777C85.7499 33.2777 87.1461 31.9443 87.1461 30.0071C87.1461 28.0699 85.7499 26.7365 83.8252 26.7365C81.9006 26.7365 80.5043 28.0699 80.5043 30.0071ZM82.039 30.0071C82.039 28.8749 82.7686 28.1076 83.8252 28.1076C84.8819 28.1076 85.6115 28.8749 85.6115 30.0071C85.6115 31.1392 84.8819 31.9065 83.8252 31.9065C82.7686 31.9065 82.039 31.1392 82.039 30.0071ZM88.3626 36.0073H89.8972V32.2965C90.2872 32.9254 91.0923 33.2902 92.0231 33.2902C93.8723 33.2902 94.9289 31.8814 94.9289 29.9442C94.9289 27.9944 93.7716 26.7239 92.0231 26.7239C91.0797 26.7239 90.262 27.139 89.8847 27.856L89.784 26.9126H88.3626V36.0073ZM89.9098 30.0196C89.9098 28.9001 90.6017 28.1202 91.6583 28.1202C92.7401 28.1202 93.3817 28.9127 93.3817 30.0196C93.3817 31.1266 92.7401 31.9065 91.6583 31.9065C90.6017 31.9065 89.9098 31.1392 89.9098 30.0196ZM100.717 24.3087H99.2957L98.3522 26.1704H99.4844L100.717 24.3087ZM98.9309 33.2902C100.554 33.2902 101.686 32.4726 101.95 31.114H100.528C100.352 31.7053 99.7988 32.0323 98.956 32.0323C97.9371 32.0323 97.3585 31.4788 97.2453 30.3844L101.925 30.3719V29.9064C101.925 27.9692 100.742 26.7239 98.8806 26.7239C97.0566 26.7239 95.7861 28.0699 95.7861 30.0196C95.7861 31.9443 97.0817 33.2902 98.9309 33.2902ZM98.8931 27.9818C99.8114 27.9818 100.403 28.5479 100.403 29.4033H97.283C97.434 28.4724 97.9874 27.9818 98.8931 27.9818ZM107.053 26.8874C106.801 26.8245 106.587 26.7994 106.373 26.7994C105.543 26.7994 104.952 27.2145 104.688 27.8309L104.6 26.9252H103.153V33.1267H104.688V30.1077C104.688 28.9001 105.379 28.3089 106.486 28.3089H107.053V26.8874ZM109.695 33.2902C110.663 33.2902 111.506 32.85 111.77 32.2084L111.884 33.1267H113.229V29.353C113.229 27.6296 112.198 26.7239 110.525 26.7239C108.839 26.7239 107.732 27.6044 107.732 28.9504H109.041C109.041 28.2963 109.544 27.9189 110.449 27.9189C111.229 27.9189 111.733 28.2586 111.733 29.1014V29.2397L109.871 29.3781C108.399 29.4913 107.569 30.2083 107.569 31.353C107.569 32.5229 108.374 33.2902 109.695 33.2902ZM110.198 32.133C109.506 32.133 109.129 31.8562 109.129 31.2901C109.129 30.787 109.493 30.4725 110.449 30.3844L111.745 30.2838V30.6109C111.745 31.5669 111.141 32.133 110.198 32.133ZM116.764 33.1267V28.1957H117.972V26.9126H116.764V24.9754H115.23V26.9126H114.035V28.1957H115.23V33.1267H116.764ZM119.693 25.6673C120.197 25.6673 120.612 25.2521 120.612 24.7364C120.612 24.2206 120.197 23.8181 119.693 23.8181C119.165 23.8181 118.75 24.2206 118.75 24.7364C118.75 25.2521 119.165 25.6673 119.693 25.6673ZM118.926 33.1267H120.461V26.9126H118.926V33.1267ZM121.682 30.0071C121.682 31.9443 123.078 33.2777 125.002 33.2777C126.927 33.2777 128.323 31.9443 128.323 30.0071C128.323 28.0699 126.927 26.7365 125.002 26.7365C123.078 26.7365 121.682 28.0699 121.682 30.0071ZM123.216 30.0071C123.216 28.8749 123.946 28.1076 125.002 28.1076C126.059 28.1076 126.789 28.8749 126.789 30.0071C126.789 31.1392 126.059 31.9065 125.002 31.9065C123.946 31.9065 123.216 31.1392 123.216 30.0071ZM131.074 33.1267V29.7806C131.074 28.7743 131.653 28.1202 132.597 28.1202C133.389 28.1202 133.905 28.6234 133.905 29.6674V33.1267H135.439V29.3026C135.439 27.6925 134.634 26.7239 133.075 26.7239C132.232 26.7239 131.477 27.0887 131.087 27.7177L130.961 26.9126H129.54V33.1267H131.074ZM136.396 31.2398C136.396 32.46 137.377 33.2902 138.924 33.2902C140.459 33.2902 141.528 32.5103 141.528 31.2524C141.528 30.2964 141 29.8184 139.955 29.5794L138.836 29.3152C138.308 29.1894 138.031 28.963 138.031 28.6108C138.031 28.1454 138.383 27.8686 138.987 27.8686C139.578 27.8686 139.93 28.2082 139.943 28.7366H141.402C141.389 27.529 140.446 26.7239 139.05 26.7239C137.616 26.7239 136.584 27.4535 136.584 28.6737C136.584 29.6674 137.125 30.1958 138.245 30.4473L139.364 30.7115C139.918 30.8373 140.081 31.0637 140.081 31.3782C140.081 31.8311 139.691 32.1204 138.974 32.1204C138.27 32.1204 137.867 31.7807 137.855 31.2398H136.396Z" fill="#2A3B51"/>
<rect x="22.9571" y="50.0022" width="496.249" height="52.2036" rx="2.83032" stroke="#839BBB" stroke-opacity="0.2" stroke-width="0.628959"/>
<path d="M47.1223 61.8653H49.3161V68.2354H50.3023V61.8653H52.4861V60.9595H47.1223V61.8653ZM55.5348 63.2741C55.3436 63.2339 55.2027 63.2137 55.0316 63.2137C54.3574 63.2137 53.8643 63.5559 53.663 64.0691L53.6026 63.3244H52.7171V68.2354H53.663V65.6289C53.663 64.683 54.2165 64.1396 55.1121 64.1396H55.5348V63.2741ZM57.6645 68.3561C58.4595 68.3561 59.1338 68.0039 59.3854 67.4403L59.486 68.2354H60.2911V65.1459C60.2911 63.8175 59.4659 63.1735 58.2482 63.1735C56.9802 63.1735 56.1349 63.8477 56.1349 64.8742H56.9601C56.9601 64.2805 57.4129 63.9282 58.208 63.9282C58.8721 63.9282 59.3652 64.2201 59.3652 65.0453V65.1862L57.8155 65.3069C56.6582 65.3975 55.984 65.961 55.984 66.8667C55.984 67.7624 56.6079 68.3561 57.6645 68.3561ZM57.9362 67.6215C57.3224 67.6215 56.94 67.3598 56.94 66.8365C56.94 66.3535 57.2821 66.0315 58.1174 65.951L59.3753 65.8503V66.112C59.3753 67.0378 58.8319 67.6215 57.9362 67.6215ZM62.5471 68.2354V65.6289C62.5471 64.6729 63.0603 64.0389 63.9459 64.0389C64.6704 64.0389 65.1333 64.4415 65.1333 65.4377V68.2354H66.0793V65.2264C66.0793 63.9685 65.4856 63.1735 64.1874 63.1735C63.493 63.1735 62.8691 63.5056 62.5571 64.0691L62.4565 63.3144H61.6011V68.2354H62.5471ZM66.928 66.8064C66.928 67.7422 67.6626 68.3561 68.8199 68.3561C69.9873 68.3561 70.7923 67.7624 70.7923 66.8265C70.7923 66.0919 70.3797 65.7095 69.5445 65.5082L68.679 65.2969C68.196 65.1761 67.9545 64.9547 67.9545 64.6226C67.9545 64.1698 68.2866 63.9081 68.8803 63.9081C69.4539 63.9081 69.786 64.2201 69.8061 64.7132H70.7118C70.6917 63.7773 69.9873 63.1735 68.9105 63.1735C67.8236 63.1735 67.0588 63.7471 67.0588 64.6528C67.0588 65.3774 67.4714 65.8101 68.3469 66.0214L69.2124 66.2227C69.7256 66.3535 69.8866 66.5548 69.8866 66.8869C69.8866 67.3397 69.5042 67.6114 68.84 67.6114C68.2161 67.6114 67.8337 67.3095 67.8337 66.8064H66.928ZM71.3181 63.3144V64.1094H72.0426V68.2354H72.9886V64.1094H74.1559V63.3144H72.9886V62.5294C72.9886 61.9961 73.1496 61.6841 73.7635 61.6841H74.1861V60.869C73.9949 60.8388 73.7836 60.8287 73.6024 60.8287C72.7068 60.8287 72.0426 61.3218 72.0426 62.5294V63.3144H71.3181ZM77.0112 68.3561C78.2289 68.3561 79.0541 67.7624 79.2956 66.7057H78.41C78.249 67.2693 77.766 67.5712 77.0314 67.5712C76.0955 67.5712 75.5521 66.9976 75.4816 65.961L79.2856 65.951V65.5988C79.2856 64.1396 78.3698 63.1735 76.971 63.1735C75.542 63.1735 74.5658 64.2402 74.5658 65.7799C74.5658 67.3095 75.5621 68.3561 77.0112 68.3561ZM76.971 63.9685C77.8062 63.9685 78.3396 64.5119 78.3396 65.327H75.5017C75.6225 64.4616 76.1458 63.9685 76.971 63.9685ZM83.1599 63.2741C82.9687 63.2339 82.8278 63.2137 82.6567 63.2137C81.9825 63.2137 81.4894 63.5559 81.2881 64.0691L81.2277 63.3244H80.3421V68.2354H81.2881V65.6289C81.2881 64.683 81.8416 64.1396 82.7372 64.1396H83.1599V63.2741ZM85.6324 68.2354V64.1094H86.5985V63.3144H85.6324V61.7747H84.6864V63.3144H83.7204V64.1094H84.6864V68.2354H85.6324ZM92.3225 68.3561C93.5401 68.3561 94.3653 67.7624 94.6068 66.7057H93.7213C93.5603 67.2693 93.0772 67.5712 92.3426 67.5712C91.4067 67.5712 90.8633 66.9976 90.7928 65.961L94.5968 65.951V65.5988C94.5968 64.1396 93.681 63.1735 92.2822 63.1735C90.8532 63.1735 89.8771 64.2402 89.8771 65.7799C89.8771 67.3095 90.8733 68.3561 92.3225 68.3561ZM92.2822 63.9685C93.1175 63.9685 93.6508 64.5119 93.6508 65.327H90.813C90.9337 64.4616 91.457 63.9685 92.2822 63.9685ZM96.5993 68.2354V65.6289C96.5993 64.6729 97.1125 64.0389 97.9981 64.0389C98.7227 64.0389 99.1856 64.4415 99.1856 65.4377V68.2354H100.132V65.2264C100.132 63.9685 99.5378 63.1735 98.2396 63.1735C97.5453 63.1735 96.9213 63.5056 96.6094 64.0691L96.5087 63.3144H95.6534V68.2354H96.5993ZM105.633 68.3561C106.428 68.3561 107.102 68.0039 107.353 67.4403L107.454 68.2354H108.259V65.1459C108.259 63.8175 107.434 63.1735 106.216 63.1735C104.948 63.1735 104.103 63.8477 104.103 64.8742H104.928C104.928 64.2805 105.381 63.9282 106.176 63.9282C106.84 63.9282 107.333 64.2201 107.333 65.0453V65.1862L105.783 65.3069C104.626 65.3975 103.952 65.961 103.952 66.8667C103.952 67.7624 104.576 68.3561 105.633 68.3561ZM105.904 67.6215C105.29 67.6215 104.908 67.3598 104.908 66.8365C104.908 66.3535 105.25 66.0315 106.085 65.951L107.343 65.8503V66.112C107.343 67.0378 106.8 67.6215 105.904 67.6215ZM110.879 68.2354V64.1094H111.845V63.3144H110.879V61.7747H109.933V63.3144H108.967V64.1094H109.933V68.2354H110.879ZM114.171 68.2354V64.1094H115.137V63.3144H114.171V61.7747H113.225V63.3144H112.259V64.1094H113.225V68.2354H114.171ZM118.061 68.3561C119.278 68.3561 120.104 67.7624 120.345 66.7057H119.459C119.298 67.2693 118.815 67.5712 118.081 67.5712C117.145 67.5712 116.601 66.9976 116.531 65.961L120.335 65.951V65.5988C120.335 64.1396 119.419 63.1735 118.02 63.1735C116.591 63.1735 115.615 64.2402 115.615 65.7799C115.615 67.3095 116.612 68.3561 118.061 68.3561ZM118.02 63.9685C118.856 63.9685 119.389 64.5119 119.389 65.327H116.551C116.672 64.4616 117.195 63.9685 118.02 63.9685ZM122.338 68.2354V65.6289C122.338 64.6729 122.851 64.0389 123.736 64.0389C124.461 64.0389 124.924 64.4415 124.924 65.4377V68.2354H125.87V65.2264C125.87 63.9685 125.276 63.1735 123.978 63.1735C123.283 63.1735 122.66 63.5056 122.348 64.0691L122.247 63.3144H121.392V68.2354H122.338ZM128.569 68.2354V64.1094H129.535V63.3144H128.569V61.7747H127.623V63.3144H126.657V64.1094H127.623V68.2354H128.569ZM132.458 68.3561C133.676 68.3561 134.501 67.7624 134.742 66.7057H133.857C133.696 67.2693 133.213 67.5712 132.478 67.5712C131.542 67.5712 130.999 66.9976 130.928 65.961L134.732 65.951V65.5988C134.732 64.1396 133.816 63.1735 132.418 63.1735C130.989 63.1735 130.013 64.2402 130.013 65.7799C130.013 67.3095 131.009 68.3561 132.458 68.3561ZM132.418 63.9685C133.253 63.9685 133.786 64.5119 133.786 65.327H130.948C131.069 64.4616 131.592 63.9685 132.418 63.9685Z" fill="#839BBB"/>
<path d="M42.5073 64.1539C42.5073 66.788 40.3719 68.9235 37.7377 68.9235C35.1035 68.9235 32.9681 66.788 32.9681 64.1539C32.9681 61.5197 35.1035 59.3843 37.7377 59.3843C40.3719 59.3843 42.5073 61.5197 42.5073 64.1539Z" fill="#839BBB" stroke="#839BBB" stroke-width="0.524133"/>
<path d="M40.3682 64.9569L40.3682 64.957L40.3729 64.959C40.3991 64.97 40.4225 64.9913 40.4386 65.0241C40.4479 65.0521 40.446 65.0825 40.4364 65.1041C40.4261 65.1272 40.4176 65.1385 40.4101 65.146L38.8805 66.6756C38.8567 66.6994 38.8289 66.7096 38.7991 66.7096C38.7692 66.7096 38.7414 66.6994 38.7177 66.6756C38.6741 66.6321 38.6741 66.5565 38.7177 66.5129L39.6033 65.6273L40.0507 65.1799H39.418H35.141C35.0795 65.1799 35.0257 65.1262 35.0257 65.0646C35.0257 65.0031 35.0795 64.9493 35.141 64.9493H40.3287C40.3448 64.9493 40.3586 64.9527 40.3682 64.9569Z" fill="#839BBB" stroke="white" stroke-width="0.524133"/>
<path d="M35.8665 62.6757L35.4191 63.1231H36.0518H40.3287C40.3976 63.1231 40.449 63.1791 40.449 63.2384C40.449 63.3 40.3953 63.3537 40.3337 63.3537H35.1461C35.13 63.3537 35.1162 63.3504 35.1066 63.3461L35.1066 63.3461L35.1019 63.344C35.0741 63.3323 35.0495 63.3091 35.0333 63.2728C35.0232 63.25 35.0232 63.2217 35.0333 63.1989C35.0436 63.1758 35.0522 63.1645 35.0597 63.157L36.5893 61.6274C36.6329 61.5838 36.7085 61.5838 36.7521 61.6274C36.7956 61.671 36.7956 61.7466 36.7521 61.7901C36.7521 61.7901 36.7521 61.7901 36.7521 61.7901L35.8665 62.6757Z" fill="#839BBB" stroke="white" stroke-width="0.524133"/>
<line x1="31.4482" y1="75.7895" x2="509.457" y2="75.7895" stroke="#839BBB" stroke-opacity="0.1" stroke-width="0.628959"/>
<path d="M37.6994 92.0068C39.8529 92.0068 41.3021 90.5376 41.3021 88.374C41.3021 86.2003 39.8328 84.731 37.6591 84.731H35.2942V92.0068H37.6994ZM37.5887 85.6367C39.2491 85.6367 40.2756 86.6833 40.2756 88.374C40.2756 90.0445 39.2491 91.0911 37.6289 91.0911H36.2804V85.6367H37.5887ZM44.5191 92.1276C45.7368 92.1276 46.562 91.5339 46.8035 90.4772H45.9179C45.7569 91.0408 45.2739 91.3427 44.5392 91.3427C43.6033 91.3427 43.0599 90.769 42.9895 89.7325L46.7934 89.7225V89.3702C46.7934 87.9111 45.8777 86.945 44.4788 86.945C43.0499 86.945 42.0737 88.0117 42.0737 89.5514C42.0737 91.081 43.07 92.1276 44.5191 92.1276ZM44.4788 87.74C45.3141 87.74 45.8475 88.2834 45.8475 89.0985H43.0096C43.1304 88.2331 43.6537 87.74 44.4788 87.74Z" fill="#839BBB"/>
<path d="M53.1622 88.374C53.1622 90.6382 54.2792 92.1377 56.1611 92.1377C58.0328 92.1377 59.1499 90.6382 59.1499 88.374C59.1499 86.1198 57.9825 84.5901 56.1611 84.5901C54.3295 84.5901 53.1622 86.1198 53.1622 88.374ZM54.1383 88.374C54.1383 86.5626 54.883 85.4757 56.1611 85.4757C57.4391 85.4757 58.1737 86.5626 58.1737 88.374C58.1737 90.1652 57.4391 91.2521 56.1611 91.2521C54.883 91.2521 54.1383 90.1652 54.1383 88.374ZM60.8341 92.0068L62.0417 90.2055L63.2694 92.0068H64.3663L62.6857 89.5715L64.3965 87.0859H63.3197L62.1021 88.9174L60.8542 87.0859H59.7573L61.4681 89.5715L59.7472 92.0068H60.8341ZM70.4186 90.5376V89.6621H69.5532V84.731H68.2751L64.8435 89.6621V90.5376H68.6072V92.0068H69.5532V90.5376H70.4186ZM65.9102 89.6621L68.6072 85.7776V89.6621H65.9102ZM72.1608 87.0355C71.4161 88.0519 71.1544 88.6557 71.1544 89.5212C71.1544 90.9904 72.3218 92.1276 73.8313 92.1276C75.3307 92.1276 76.4779 91.0408 76.4779 89.5212C76.4779 88.0821 75.4615 86.9953 73.952 86.9953C73.7005 86.9953 73.4388 87.0456 73.1872 87.1462L75.0087 84.731H73.8615L72.1608 87.0355ZM72.1608 89.5313C72.1608 88.535 72.8451 87.8305 73.8313 87.8305C74.7974 87.8305 75.4817 88.535 75.4817 89.5313C75.4817 90.5275 74.7974 91.242 73.8313 91.242C72.8451 91.242 72.1608 90.5275 72.1608 89.5313ZM76.4142 84.731V85.6367H80.4999L77.7124 92.0068H78.7388L81.4962 85.6367V84.731H76.4142ZM81.9242 89.5514C81.9242 91.1011 82.8802 92.1276 84.3293 92.1276C85.5168 92.1276 86.4326 91.4131 86.6238 90.3464H85.6778C85.5067 90.9301 85.0036 91.2823 84.3293 91.2823C83.4337 91.2823 82.8601 90.598 82.8601 89.5413C82.8601 88.4746 83.4739 87.7903 84.3696 87.7903C85.0036 87.7903 85.5067 88.1224 85.6677 88.7463H86.6137C86.4426 87.6494 85.5772 86.945 84.3394 86.945C82.9003 86.945 81.9242 88.0117 81.9242 89.5514ZM87.4105 89.9841C87.4105 91.2722 88.4672 92.1276 90.0874 92.1276C91.6975 92.1276 92.7642 91.2722 92.7642 89.9942C92.7642 89.0985 92.2409 88.374 91.4258 88.1123C92.1101 87.8406 92.4925 87.267 92.4925 86.5223C92.4925 85.3751 91.5264 84.6002 90.0974 84.6002C88.6483 84.6002 87.6722 85.3751 87.6722 86.5122C87.6722 87.2469 88.0445 87.8205 88.7288 88.1123C87.9237 88.4042 87.4105 89.1086 87.4105 89.9841ZM88.5779 86.5726C88.5779 85.8984 89.1716 85.4556 90.0773 85.4556C90.9931 85.4556 91.5667 85.8984 91.5667 86.5928C91.5667 87.2972 90.9931 87.75 90.0773 87.75C89.1716 87.75 88.5779 87.2871 88.5779 86.5726ZM88.3766 89.9137C88.3766 89.1086 89.0408 88.5954 90.0773 88.5954C91.1239 88.5954 91.7881 89.1086 91.7881 89.9137C91.7881 90.7288 91.1138 91.2521 90.0874 91.2521C89.0508 91.2521 88.3766 90.7288 88.3766 89.9137ZM98.4634 91.9968V91.081H95.1022L96.6117 89.7728C97.8998 88.6557 98.4131 87.9211 98.4131 86.8846C98.4131 85.4858 97.4772 84.6002 96.018 84.6002C94.5387 84.6002 93.5525 85.6166 93.5223 87.1764H94.5085C94.5286 86.1399 95.1123 85.4858 96.0079 85.4858C96.8834 85.4858 97.4067 86.0292 97.4067 86.945C97.4067 87.7198 97.0746 88.213 95.8972 89.2294L93.5525 91.2521V92.0068L98.4634 91.9968ZM99.0389 87.0859V87.8809H99.7635V92.0068H100.709V87.8809H101.877V87.0859H100.709V86.3009C100.709 85.7676 100.87 85.4556 101.484 85.4556H101.907V84.6405C101.716 84.6103 101.504 84.6002 101.323 84.6002C100.428 84.6002 99.7635 85.0933 99.7635 86.3009V87.0859H99.0389ZM107.989 90.5376V89.6621H107.124V84.731H105.846L102.414 89.6621V90.5376H106.178V92.0068H107.124V90.5376H107.989ZM103.481 89.6621L106.178 85.7776V89.6621H103.481ZM111.3 92.1276C112.87 92.1276 113.947 91.0709 113.947 89.5614C113.947 88.1626 112.991 87.1261 111.511 87.1261C110.968 87.1261 110.485 87.2771 110.102 87.5689L110.585 85.6367H113.514V84.731H109.871L108.985 88.4645L109.821 88.6759C110.153 88.2633 110.716 87.9714 111.33 87.9714C112.347 87.9714 112.94 88.6658 112.94 89.6017C112.94 90.5879 112.306 91.242 111.32 91.242C110.394 91.242 109.821 90.6684 109.821 89.7325H108.844C108.844 91.1816 109.811 92.1276 111.3 92.1276ZM115.726 87.0355C114.981 88.0519 114.72 88.6557 114.72 89.5212C114.72 90.9904 115.887 92.1276 117.397 92.1276C118.896 92.1276 120.043 91.0408 120.043 89.5212C120.043 88.0821 119.027 86.9953 117.517 86.9953C117.266 86.9953 117.004 87.0456 116.752 87.1462L118.574 84.731H117.427L115.726 87.0355ZM115.726 89.5313C115.726 88.535 116.41 87.8305 117.397 87.8305C118.363 87.8305 119.047 88.535 119.047 89.5313C119.047 90.5275 118.363 91.242 117.397 91.242C116.41 91.242 115.726 90.5275 115.726 89.5313ZM122.109 92.0068V90.608L122.945 89.7325L124.384 92.0068H125.471L123.599 89.0482L125.481 87.0859H124.293L122.109 89.4004V84.6002H121.164V92.0068H122.109ZM129.786 92.0068V91.2118H127.109L129.786 87.8607V87.0859H125.952V87.8809H128.609L125.952 91.242V92.0068H129.786ZM134.898 89.7023C135.643 88.6859 135.905 88.0721 135.905 87.2167C135.905 85.7374 134.737 84.6002 133.228 84.6002C131.728 84.6002 130.581 85.6971 130.581 87.2066C130.581 88.6557 131.598 89.7426 133.107 89.7426C133.359 89.7426 133.62 89.6923 133.872 89.5916L132.051 92.0068H133.198L134.898 89.7023ZM134.898 87.2066C134.898 88.2029 134.214 88.9073 133.228 88.9073C132.262 88.9073 131.578 88.2029 131.578 87.2066C131.578 86.2103 132.262 85.4858 133.228 85.4858C134.214 85.4858 134.898 86.2103 134.898 87.2066ZM141.655 91.9968V91.081H138.294L139.804 89.7728C141.092 88.6557 141.605 87.9211 141.605 86.8846C141.605 85.4858 140.669 84.6002 139.21 84.6002C137.73 84.6002 136.744 85.6166 136.714 87.1764H137.7C137.72 86.1399 138.304 85.4858 139.2 85.4858C140.075 85.4858 140.599 86.0292 140.599 86.945C140.599 87.7198 140.266 88.213 139.089 89.2294L136.744 91.2521V92.0068L141.655 91.9968ZM146.155 87.0859V89.6822C146.155 90.7389 145.682 91.2923 144.817 91.2923C144.092 91.2923 143.64 90.8898 143.64 89.8332V87.0859H142.694V90.1451C142.694 91.3527 143.338 92.1276 144.485 92.1276C145.21 92.1276 145.864 91.7754 146.145 91.2621L146.246 92.0068H147.091V87.0859H146.155ZM153.153 91.9968V91.081H149.792L151.302 89.7728C152.59 88.6557 153.103 87.9211 153.103 86.8846C153.103 85.4858 152.167 84.6002 150.708 84.6002C149.229 84.6002 148.242 85.6166 148.212 87.1764H149.198C149.219 86.1399 149.802 85.4858 150.698 85.4858C151.573 85.4858 152.097 86.0292 152.097 86.945C152.097 87.7198 151.765 88.213 150.587 89.2294L148.242 91.2521V92.0068L153.153 91.9968ZM154.987 87.0355C154.242 88.0519 153.981 88.6557 153.981 89.5212C153.981 90.9904 155.148 92.1276 156.657 92.1276C158.157 92.1276 159.304 91.0408 159.304 89.5212C159.304 88.0821 158.288 86.9953 156.778 86.9953C156.527 86.9953 156.265 87.0456 156.013 87.1462L157.835 84.731H156.688L154.987 87.0355ZM154.987 89.5313C154.987 88.535 155.671 87.8305 156.657 87.8305C157.623 87.8305 158.308 88.535 158.308 89.5313C158.308 90.5275 157.623 91.242 156.657 91.242C155.671 91.242 154.987 90.5275 154.987 89.5313ZM162.335 88.2431C163.493 88.2431 164.097 88.8268 164.097 89.7023C164.097 90.6382 163.483 91.242 162.537 91.242C161.621 91.242 161.037 90.6885 161.037 89.7426H160.061C160.061 91.2521 161.088 92.1276 162.517 92.1276C163.996 92.1276 165.103 91.1917 165.103 89.7225C165.103 88.4142 164.167 87.579 162.929 87.428L164.922 85.526V84.731H160.403V85.6065H163.674L161.611 87.589V88.2431H162.335Z" fill="#2A3B51"/>
<path opacity="0.4" d="M177.237 84.3617H173.727C172.201 84.3617 171.291 85.2716 171.291 86.7979V90.3075C171.291 91.8337 172.201 92.7436 173.727 92.7436H177.237C178.763 92.7436 179.673 91.8337 179.673 90.3075V86.7979C179.673 85.2716 178.763 84.3617 177.237 84.3617Z" fill="#292D32"/>
<path d="M174.294 89.4309C174.374 89.4309 174.454 89.4015 174.516 89.3386L176.353 87.5021V88.521C176.353 88.6929 176.496 88.8354 176.667 88.8354C176.839 88.8354 176.982 88.6929 176.982 88.521V86.7431C176.982 86.7012 176.974 86.6634 176.957 86.6215C176.923 86.546 176.865 86.4831 176.785 86.4496C176.747 86.4328 176.705 86.4244 176.663 86.4244H174.885C174.713 86.4244 174.571 86.567 174.571 86.7389C174.571 86.9108 174.713 87.0534 174.885 87.0534H175.904L174.068 88.89C173.946 89.0116 173.946 89.2128 174.068 89.3344C174.135 89.4015 174.215 89.4309 174.294 89.4309Z" fill="#292D32"/>
<path d="M178.294 90.3491C178.239 90.1855 178.063 90.0975 177.896 90.152C176.336 90.6719 174.621 90.6719 173.061 90.152C172.897 90.0975 172.717 90.1855 172.663 90.3491C172.608 90.5126 172.696 90.6929 172.86 90.7474C173.702 91.0284 174.587 91.1709 175.476 91.1709C176.365 91.1709 177.25 91.0284 178.093 90.7474C178.26 90.6887 178.348 90.5126 178.294 90.3491Z" fill="#292D32"/>
<path d="M253.6 92.0068L254.244 90.1954H257.303L257.957 92.0068H258.994L256.327 84.731H255.23L252.573 92.0068H253.6ZM255.653 86.3009C255.703 86.15 255.753 85.9789 255.774 85.8783C255.794 85.989 255.844 86.16 255.894 86.3009L257.011 89.34H254.546L255.653 86.3009Z" fill="#839BBB"/>
<path d="M265.112 88.374C265.112 90.6382 266.229 92.1377 268.111 92.1377C269.983 92.1377 271.1 90.6382 271.1 88.374C271.1 86.1198 269.933 84.5901 268.111 84.5901C266.28 84.5901 265.112 86.1198 265.112 88.374ZM266.088 88.374C266.088 86.5626 266.833 85.4757 268.111 85.4757C269.389 85.4757 270.124 86.5626 270.124 88.374C270.124 90.1652 269.389 91.2521 268.111 91.2521C266.833 91.2521 266.088 90.1652 266.088 88.374ZM272.784 92.0068L273.992 90.2055L275.219 92.0068H276.316L274.636 89.5715L276.347 87.0859H275.27L274.052 88.9174L272.804 87.0859H271.707L273.418 89.5715L271.697 92.0068H272.784ZM278.333 85.6166V92.0068H279.279V84.731H276.804V85.6166H278.333ZM283.016 92.1276C284.586 92.1276 285.663 91.0709 285.663 89.5614C285.663 88.1626 284.707 87.1261 283.228 87.1261C282.684 87.1261 282.201 87.2771 281.819 87.5689L282.302 85.6367H285.23V84.731H281.587L280.702 88.4645L281.537 88.6759C281.869 88.2633 282.433 87.9714 283.046 87.9714C284.063 87.9714 284.657 88.6658 284.657 89.6017C284.657 90.5879 284.023 91.242 283.036 91.242C282.111 91.242 281.537 90.6684 281.537 89.7325H280.561C280.561 91.1816 281.527 92.1276 283.016 92.1276ZM290.694 89.7023C291.439 88.6859 291.701 88.0721 291.701 87.2167C291.701 85.7374 290.533 84.6002 289.024 84.6002C287.524 84.6002 286.377 85.6971 286.377 87.2066C286.377 88.6557 287.393 89.7426 288.903 89.7426C289.155 89.7426 289.416 89.6923 289.668 89.5916L287.846 92.0068H288.994L290.694 89.7023ZM290.694 87.2066C290.694 88.2029 290.01 88.9073 289.024 88.9073C288.058 88.9073 287.373 88.2029 287.373 87.2066C287.373 86.2103 288.058 85.4858 289.024 85.4858C290.01 85.4858 290.694 86.2103 290.694 87.2066ZM292.479 89.5514C292.479 91.1011 293.435 92.1276 294.884 92.1276C296.071 92.1276 296.987 91.4131 297.178 90.3464H296.232C296.061 90.9301 295.558 91.2823 294.884 91.2823C293.988 91.2823 293.415 90.598 293.415 89.5413C293.415 88.4746 294.028 87.7903 294.924 87.7903C295.558 87.7903 296.061 88.1224 296.222 88.7463H297.168C296.997 87.6494 296.132 86.945 294.894 86.945C293.455 86.945 292.479 88.0117 292.479 89.5514ZM297.965 89.9841C297.965 91.2722 299.022 92.1276 300.642 92.1276C302.252 92.1276 303.319 91.2722 303.319 89.9942C303.319 89.0985 302.795 88.374 301.98 88.1123C302.665 87.8406 303.047 87.267 303.047 86.5223C303.047 85.3751 302.081 84.6002 300.652 84.6002C299.203 84.6002 298.227 85.3751 298.227 86.5122C298.227 87.2469 298.599 87.8205 299.283 88.1123C298.478 88.4042 297.965 89.1086 297.965 89.9841ZM299.132 86.5726C299.132 85.8984 299.726 85.4556 300.632 85.4556C301.548 85.4556 302.121 85.8984 302.121 86.5928C302.121 87.2972 301.548 87.75 300.632 87.75C299.726 87.75 299.132 87.2871 299.132 86.5726ZM298.931 89.9137C298.931 89.1086 299.595 88.5954 300.632 88.5954C301.678 88.5954 302.343 89.1086 302.343 89.9137C302.343 90.7288 301.668 91.2521 300.642 91.2521C299.605 91.2521 298.931 90.7288 298.931 89.9137ZM309.018 91.9968V91.081H305.657L307.166 89.7728C308.454 88.6557 308.968 87.9211 308.968 86.8846C308.968 85.4858 308.032 84.6002 306.573 84.6002C305.093 84.6002 304.107 85.6166 304.077 87.1764H305.063C305.083 86.1399 305.667 85.4858 306.562 85.4858C307.438 85.4858 307.961 86.0292 307.961 86.945C307.961 87.7198 307.629 88.213 306.452 89.2294L304.107 91.2521V92.0068L309.018 91.9968ZM309.593 87.0859V87.8809H310.318V92.0068H311.264V87.8809H312.431V87.0859H311.264V86.3009C311.264 85.7676 311.425 85.4556 312.039 85.4556H312.462V84.6405C312.27 84.6103 312.059 84.6002 311.878 84.6002C310.982 84.6002 310.318 85.0933 310.318 86.3009V87.0859H309.593ZM318.544 90.5376V89.6621H317.678V84.731H316.4L312.969 89.6621V90.5376H316.732V92.0068H317.678V90.5376H318.544ZM314.035 89.6621L316.732 85.7776V89.6621H314.035ZM321.855 92.1276C323.424 92.1276 324.501 91.0709 324.501 89.5614C324.501 88.1626 323.545 87.1261 322.066 87.1261C321.522 87.1261 321.039 87.2771 320.657 87.5689L321.14 85.6367H324.068V84.731H320.426L319.54 88.4645L320.375 88.6759C320.707 88.2633 321.271 87.9714 321.885 87.9714C322.901 87.9714 323.495 88.6658 323.495 89.6017C323.495 90.5879 322.861 91.242 321.875 91.242C320.949 91.242 320.375 90.6684 320.375 89.7325H319.399C319.399 91.1816 320.365 92.1276 321.855 92.1276ZM326.281 87.0355C325.536 88.0519 325.274 88.6557 325.274 89.5212C325.274 90.9904 326.442 92.1276 327.951 92.1276C329.451 92.1276 330.598 91.0408 330.598 89.5212C330.598 88.0821 329.581 86.9953 328.072 86.9953C327.82 86.9953 327.559 87.0456 327.307 87.1462L329.128 84.731H327.981L326.281 87.0355ZM326.281 89.5313C326.281 88.535 326.965 87.8305 327.951 87.8305C328.917 87.8305 329.601 88.535 329.601 89.5313C329.601 90.5275 328.917 91.242 327.951 91.242C326.965 91.242 326.281 90.5275 326.281 89.5313ZM332.664 92.0068V90.608L333.499 89.7325L334.938 92.0068H336.025L334.153 89.0482L336.035 87.0859H334.848L332.664 89.4004V84.6002H331.718V92.0068H332.664ZM340.34 92.0068V91.2118H337.664L340.34 87.8607V87.0859H336.506V87.8809H339.163L336.506 91.242V92.0068H340.34ZM345.453 89.7023C346.198 88.6859 346.459 88.0721 346.459 87.2167C346.459 85.7374 345.292 84.6002 343.782 84.6002C342.283 84.6002 341.136 85.6971 341.136 87.2066C341.136 88.6557 342.152 89.7426 343.662 89.7426C343.913 89.7426 344.175 89.6923 344.427 89.5916L342.605 92.0068H343.752L345.453 89.7023ZM345.453 87.2066C345.453 88.2029 344.769 88.9073 343.782 88.9073C342.816 88.9073 342.132 88.2029 342.132 87.2066C342.132 86.2103 342.816 85.4858 343.782 85.4858C344.769 85.4858 345.453 86.2103 345.453 87.2066ZM352.21 91.9968V91.081H348.849L350.358 89.7728C351.646 88.6557 352.159 87.9211 352.159 86.8846C352.159 85.4858 351.224 84.6002 349.764 84.6002C348.285 84.6002 347.299 85.6166 347.269 87.1764H348.255C348.275 86.1399 348.859 85.4858 349.754 85.4858C350.63 85.4858 351.153 86.0292 351.153 86.945C351.153 87.7198 350.821 88.213 349.644 89.2294L347.299 91.2521V92.0068L352.21 91.9968ZM356.71 87.0859V89.6822C356.71 90.7389 356.237 91.2923 355.372 91.2923C354.647 91.2923 354.194 90.8898 354.194 89.8332V87.0859H353.248V90.1451C353.248 91.3527 353.892 92.1276 355.039 92.1276C355.764 92.1276 356.418 91.7754 356.7 91.2621L356.801 92.0068H357.646V87.0859H356.71ZM358.415 84.731V85.6367H362.5L359.713 92.0068H360.739L363.497 85.6367V84.731H358.415ZM363.898 88.374C363.898 90.6382 365.015 92.1377 366.897 92.1377C368.769 92.1377 369.886 90.6382 369.886 88.374C369.886 86.1198 368.719 84.5901 366.897 84.5901C365.066 84.5901 363.898 86.1198 363.898 88.374ZM364.874 88.374C364.874 86.5626 365.619 85.4757 366.897 85.4757C368.175 85.4757 368.91 86.5626 368.91 88.374C368.91 90.1652 368.175 91.2521 366.897 91.2521C365.619 91.2521 364.874 90.1652 364.874 88.374ZM370.306 84.731V85.6367H374.392L371.604 92.0068H372.63L375.388 85.6367V84.731H370.306Z" fill="#2A3B51"/>
<rect x="22.9571" y="112.898" width="496.249" height="52.2036" rx="2.83032" stroke="#21BC27" stroke-opacity="0.2" stroke-width="0.628959"/>
<path d="M46.9498 124.761H49.1436V131.131H50.1298V124.761H52.3136V123.855H46.9498V124.761ZM55.3623 126.17C55.1711 126.13 55.0302 126.11 54.8591 126.11C54.1849 126.11 53.6918 126.452 53.4905 126.965L53.4301 126.22H52.5445V131.131H53.4905V128.525C53.4905 127.579 54.044 127.035 54.9396 127.035H55.3623V126.17ZM57.492 131.252C58.287 131.252 58.9613 130.9 59.2129 130.336L59.3135 131.131H60.1186V128.042C60.1186 126.713 59.2934 126.069 58.0757 126.069C56.8077 126.069 55.9624 126.744 55.9624 127.77H56.7876C56.7876 127.176 57.2404 126.824 58.0354 126.824C58.6996 126.824 59.1927 127.116 59.1927 127.941V128.082L57.643 128.203C56.4857 128.293 55.8114 128.857 55.8114 129.763C55.8114 130.658 56.4354 131.252 57.492 131.252ZM57.7637 130.517C57.1499 130.517 56.7675 130.256 56.7675 129.732C56.7675 129.249 57.1096 128.927 57.9449 128.847L59.2028 128.746V129.008C59.2028 129.934 58.6594 130.517 57.7637 130.517ZM62.3746 131.131V128.525C62.3746 127.569 62.8878 126.935 63.7734 126.935C64.4979 126.935 64.9608 127.337 64.9608 128.334V131.131H65.9068V128.122C65.9068 126.864 65.3131 126.069 64.0149 126.069C63.3205 126.069 62.6966 126.401 62.3846 126.965L62.284 126.21H61.4286V131.131H62.3746ZM66.7555 129.702C66.7555 130.638 67.4901 131.252 68.6474 131.252C69.8147 131.252 70.6198 130.658 70.6198 129.722C70.6198 128.988 70.2072 128.605 69.372 128.404L68.5065 128.193C68.0235 128.072 67.782 127.851 67.782 127.518C67.782 127.066 68.114 126.804 68.7078 126.804C69.2814 126.804 69.6135 127.116 69.6336 127.609H70.5393C70.5192 126.673 69.8147 126.069 68.738 126.069C67.6511 126.069 66.8863 126.643 66.8863 127.549C66.8863 128.273 67.2989 128.706 68.1744 128.917L69.0399 129.119C69.5531 129.249 69.7141 129.451 69.7141 129.783C69.7141 130.236 69.3317 130.507 68.6675 130.507C68.0436 130.507 67.6612 130.205 67.6612 129.702H66.7555ZM71.1455 126.21V127.005H71.8701V131.131H72.8161V127.005H73.9834V126.21H72.8161V125.425C72.8161 124.892 72.9771 124.58 73.5909 124.58H74.0136V123.765C73.8224 123.735 73.6111 123.725 73.4299 123.725C72.5343 123.725 71.8701 124.218 71.8701 125.425V126.21H71.1455ZM76.8387 131.252C78.0564 131.252 78.8816 130.658 79.1231 129.602H78.2375C78.0765 130.165 77.5935 130.467 76.8589 130.467C75.923 130.467 75.3795 129.893 75.3091 128.857L79.113 128.847V128.495C79.113 127.035 78.1973 126.069 76.7985 126.069C75.3695 126.069 74.3933 127.136 74.3933 128.676C74.3933 130.205 75.3896 131.252 76.8387 131.252ZM76.7985 126.864C77.6337 126.864 78.1671 127.408 78.1671 128.223H75.3292C75.45 127.357 75.9733 126.864 76.7985 126.864ZM82.9874 126.17C82.7962 126.13 82.6553 126.11 82.4842 126.11C81.8099 126.11 81.3168 126.452 81.1156 126.965L81.0552 126.22H80.1696V131.131H81.1156V128.525C81.1156 127.579 81.6691 127.035 82.5647 127.035H82.9874V126.17ZM85.4599 131.131V127.005H86.426V126.21H85.4599V124.671H84.5139V126.21H83.5478V127.005H84.5139V131.131H85.4599ZM92.8443 126.17C92.6531 126.13 92.5122 126.11 92.3412 126.11C91.6669 126.11 91.1738 126.452 90.9725 126.965L90.9122 126.22H90.0266V131.131H90.9725V128.525C90.9725 127.579 91.526 127.035 92.4217 127.035H92.8443V126.17ZM96.8957 124.298H95.9699L95.2956 125.637H96.0302L96.8957 124.298ZM95.678 131.252C96.8957 131.252 97.7209 130.658 97.9624 129.602H97.0768C96.9158 130.165 96.4328 130.467 95.6982 130.467C94.7623 130.467 94.2188 129.893 94.1484 128.857L97.9523 128.847V128.495C97.9523 127.035 97.0366 126.069 95.6378 126.069C94.2088 126.069 93.2326 127.136 93.2326 128.676C93.2326 130.205 94.2289 131.252 95.678 131.252ZM95.6378 126.864C96.473 126.864 97.0064 127.408 97.0064 128.223H94.1685C94.2893 127.357 94.8126 126.864 95.6378 126.864ZM102.41 126.21V128.807C102.41 129.863 101.937 130.417 101.072 130.417C100.347 130.417 99.8945 130.014 99.8945 128.958V126.21H98.9485V129.27C98.9485 130.477 99.5926 131.252 100.74 131.252C101.464 131.252 102.118 130.9 102.4 130.387L102.501 131.131H103.346V126.21H102.41ZM104.218 129.702C104.218 130.638 104.953 131.252 106.11 131.252C107.277 131.252 108.082 130.658 108.082 129.722C108.082 128.988 107.67 128.605 106.834 128.404L105.969 128.193C105.486 128.072 105.244 127.851 105.244 127.518C105.244 127.066 105.576 126.804 106.17 126.804C106.744 126.804 107.076 127.116 107.096 127.609H108.002C107.982 126.673 107.277 126.069 106.2 126.069C105.114 126.069 104.349 126.643 104.349 127.549C104.349 128.273 104.761 128.706 105.637 128.917L106.502 129.119C107.015 129.249 107.177 129.451 107.177 129.783C107.177 130.236 106.794 130.507 106.13 130.507C105.506 130.507 105.124 130.205 105.124 129.702H104.218ZM108.729 129.702C108.729 130.638 109.463 131.252 110.621 131.252C111.788 131.252 112.593 130.658 112.593 129.722C112.593 128.988 112.18 128.605 111.345 128.404L110.48 128.193C109.997 128.072 109.755 127.851 109.755 127.518C109.755 127.066 110.087 126.804 110.681 126.804C111.255 126.804 111.587 127.116 111.607 127.609H112.513C112.492 126.673 111.788 126.069 110.711 126.069C109.624 126.069 108.86 126.643 108.86 127.549C108.86 128.273 109.272 128.706 110.148 128.917L111.013 129.119C111.526 129.249 111.687 129.451 111.687 129.783C111.687 130.236 111.305 130.507 110.641 130.507C110.017 130.507 109.634 130.205 109.634 129.702H108.729ZM114.105 125.043C114.447 125.043 114.729 124.761 114.729 124.419C114.729 124.067 114.447 123.795 114.105 123.795C113.763 123.795 113.481 124.067 113.481 124.419C113.481 124.761 113.763 125.043 114.105 125.043ZM113.642 131.131H114.588V126.21H113.642V131.131Z" fill="#21BC27"/>
<path d="M42.5073 127.05C42.5073 129.684 40.3719 131.819 37.7377 131.819C35.1035 131.819 32.9681 129.684 32.9681 127.05C32.9681 124.415 35.1035 122.28 37.7377 122.28C40.3719 122.28 42.5073 124.415 42.5073 127.05Z" fill="#21BC27" stroke="#21BC27" stroke-width="0.524133"/>
<path d="M40.3682 127.853L40.3682 127.853L40.3729 127.855C40.3991 127.866 40.4225 127.887 40.4386 127.92C40.4479 127.948 40.446 127.978 40.4364 128C40.4261 128.023 40.4176 128.034 40.4101 128.042L38.8805 129.571C38.8567 129.595 38.8289 129.605 38.7991 129.605C38.7692 129.605 38.7414 129.595 38.7177 129.571C38.6741 129.528 38.6741 129.452 38.7177 129.409L39.6033 128.523L40.0507 128.076H39.418H35.141C35.0795 128.076 35.0257 128.022 35.0257 127.96C35.0257 127.899 35.0795 127.845 35.141 127.845H40.3287C40.3448 127.845 40.3586 127.848 40.3682 127.853Z" fill="#21BC27" stroke="white" stroke-width="0.524133"/>
<path d="M35.8665 125.571L35.4191 126.019H36.0518H40.3287C40.3976 126.019 40.449 126.075 40.449 126.134C40.449 126.196 40.3953 126.249 40.3337 126.249H35.1461C35.13 126.249 35.1162 126.246 35.1066 126.242L35.1066 126.242L35.1019 126.24C35.0741 126.228 35.0495 126.205 35.0333 126.168C35.0232 126.146 35.0232 126.117 35.0333 126.095C35.0436 126.071 35.0522 126.06 35.0597 126.053L36.5893 124.523C36.6329 124.479 36.7085 124.479 36.7521 124.523C36.7956 124.567 36.7956 124.642 36.7521 124.686C36.7521 124.686 36.7521 124.686 36.7521 124.686L35.8665 125.571Z" fill="#21BC27" stroke="white" stroke-width="0.524133"/>
<line x1="31.4482" y1="138.685" x2="509.457" y2="138.685" stroke="#839BBB" stroke-opacity="0.1" stroke-width="0.628959"/>
<path d="M37.6994 154.903C39.8529 154.903 41.3021 153.433 41.3021 151.27C41.3021 149.096 39.8328 147.627 37.6591 147.627H35.2942V154.903H37.6994ZM37.5887 148.533C39.2491 148.533 40.2756 149.579 40.2756 151.27C40.2756 152.94 39.2491 153.987 37.6289 153.987H36.2804V148.533H37.5887ZM44.5191 155.023C45.7368 155.023 46.562 154.43 46.8035 153.373H45.9179C45.7569 153.937 45.2739 154.239 44.5392 154.239C43.6033 154.239 43.0599 153.665 42.9895 152.628L46.7934 152.618V152.266C46.7934 150.807 45.8777 149.841 44.4788 149.841C43.0499 149.841 42.0737 150.908 42.0737 152.447C42.0737 153.977 43.07 155.023 44.5191 155.023ZM44.4788 150.636C45.3141 150.636 45.8475 151.179 45.8475 151.994H43.0096C43.1304 151.129 43.6537 150.636 44.4788 150.636Z" fill="#839BBB"/>
<path d="M53.1622 151.27C53.1622 153.534 54.2792 155.034 56.1611 155.034C58.0328 155.034 59.1499 153.534 59.1499 151.27C59.1499 149.016 57.9825 147.486 56.1611 147.486C54.3295 147.486 53.1622 149.016 53.1622 151.27ZM54.1383 151.27C54.1383 149.458 54.883 148.372 56.1611 148.372C57.4391 148.372 58.1737 149.458 58.1737 151.27C58.1737 153.061 57.4391 154.148 56.1611 154.148C54.883 154.148 54.1383 153.061 54.1383 151.27ZM60.8341 154.903L62.0417 153.101L63.2694 154.903H64.3663L62.6857 152.467L64.3965 149.982H63.3197L62.1021 151.813L60.8542 149.982H59.7573L61.4681 152.467L59.7472 154.903H60.8341ZM70.4186 153.433V152.558H69.5532V147.627H68.2751L64.8435 152.558V153.433H68.6072V154.903H69.5532V153.433H70.4186ZM65.9102 152.558L68.6072 148.673V152.558H65.9102ZM72.1608 149.931C71.4161 150.948 71.1544 151.552 71.1544 152.417C71.1544 153.886 72.3218 155.023 73.8313 155.023C75.3307 155.023 76.4779 153.937 76.4779 152.417C76.4779 150.978 75.4615 149.891 73.952 149.891C73.7005 149.891 73.4388 149.941 73.1872 150.042L75.0087 147.627H73.8615L72.1608 149.931ZM72.1608 152.427C72.1608 151.431 72.8451 150.726 73.8313 150.726C74.7974 150.726 75.4817 151.431 75.4817 152.427C75.4817 153.423 74.7974 154.138 73.8313 154.138C72.8451 154.138 72.1608 153.423 72.1608 152.427ZM76.4142 147.627V148.533H80.4999L77.7124 154.903H78.7388L81.4962 148.533V147.627H76.4142ZM81.9242 152.447C81.9242 153.997 82.8802 155.023 84.3293 155.023C85.5168 155.023 86.4326 154.309 86.6238 153.242H85.6778C85.5067 153.826 85.0036 154.178 84.3293 154.178C83.4337 154.178 82.8601 153.494 82.8601 152.437C82.8601 151.37 83.4739 150.686 84.3696 150.686C85.0036 150.686 85.5067 151.018 85.6677 151.642H86.6137C86.4426 150.545 85.5772 149.841 84.3394 149.841C82.9003 149.841 81.9242 150.908 81.9242 152.447ZM87.4105 152.88C87.4105 154.168 88.4672 155.023 90.0874 155.023C91.6975 155.023 92.7642 154.168 92.7642 152.89C92.7642 151.994 92.2409 151.27 91.4258 151.008C92.1101 150.736 92.4925 150.163 92.4925 149.418C92.4925 148.271 91.5264 147.496 90.0974 147.496C88.6483 147.496 87.6722 148.271 87.6722 149.408C87.6722 150.143 88.0445 150.716 88.7288 151.008C87.9237 151.3 87.4105 152.004 87.4105 152.88ZM88.5779 149.469C88.5779 148.794 89.1716 148.351 90.0773 148.351C90.9931 148.351 91.5667 148.794 91.5667 149.489C91.5667 150.193 90.9931 150.646 90.0773 150.646C89.1716 150.646 88.5779 150.183 88.5779 149.469ZM88.3766 152.81C88.3766 152.004 89.0408 151.491 90.0773 151.491C91.1239 151.491 91.7881 152.004 91.7881 152.81C91.7881 153.625 91.1138 154.148 90.0874 154.148C89.0508 154.148 88.3766 153.625 88.3766 152.81ZM98.4634 154.893V153.977H95.1022L96.6117 152.669C97.8998 151.552 98.4131 150.817 98.4131 149.78C98.4131 148.382 97.4772 147.496 96.018 147.496C94.5387 147.496 93.5525 148.512 93.5223 150.072H94.5085C94.5286 149.036 95.1123 148.382 96.0079 148.382C96.8834 148.382 97.4067 148.925 97.4067 149.841C97.4067 150.616 97.0746 151.109 95.8972 152.125L93.5525 154.148V154.903L98.4634 154.893ZM99.0389 149.982V150.777H99.7635V154.903H100.709V150.777H101.877V149.982H100.709V149.197C100.709 148.663 100.87 148.351 101.484 148.351H101.907V147.536C101.716 147.506 101.504 147.496 101.323 147.496C100.428 147.496 99.7635 147.989 99.7635 149.197V149.982H99.0389ZM107.989 153.433V152.558H107.124V147.627H105.846L102.414 152.558V153.433H106.178V154.903H107.124V153.433H107.989ZM103.481 152.558L106.178 148.673V152.558H103.481ZM111.3 155.023C112.87 155.023 113.947 153.967 113.947 152.457C113.947 151.059 112.991 150.022 111.511 150.022C110.968 150.022 110.485 150.173 110.102 150.465L110.585 148.533H113.514V147.627H109.871L108.985 151.36L109.821 151.572C110.153 151.159 110.716 150.867 111.33 150.867C112.347 150.867 112.94 151.562 112.94 152.498C112.94 153.484 112.306 154.138 111.32 154.138C110.394 154.138 109.821 153.564 109.821 152.628H108.844C108.844 154.078 109.811 155.023 111.3 155.023ZM115.726 149.931C114.981 150.948 114.72 151.552 114.72 152.417C114.72 153.886 115.887 155.023 117.397 155.023C118.896 155.023 120.043 153.937 120.043 152.417C120.043 150.978 119.027 149.891 117.517 149.891C117.266 149.891 117.004 149.941 116.752 150.042L118.574 147.627H117.427L115.726 149.931ZM115.726 152.427C115.726 151.431 116.41 150.726 117.397 150.726C118.363 150.726 119.047 151.431 119.047 152.427C119.047 153.423 118.363 154.138 117.397 154.138C116.41 154.138 115.726 153.423 115.726 152.427ZM122.109 154.903V153.504L122.945 152.628L124.384 154.903H125.471L123.599 151.944L125.481 149.982H124.293L122.109 152.296V147.496H121.164V154.903H122.109ZM129.786 154.903V154.108H127.109L129.786 150.757V149.982H125.952V150.777H128.609L125.952 154.138V154.903H129.786ZM134.898 152.598C135.643 151.582 135.905 150.968 135.905 150.113C135.905 148.633 134.737 147.496 133.228 147.496C131.728 147.496 130.581 148.593 130.581 150.102C130.581 151.552 131.598 152.638 133.107 152.638C133.359 152.638 133.62 152.588 133.872 152.488L132.051 154.903H133.198L134.898 152.598ZM134.898 150.102C134.898 151.099 134.214 151.803 133.228 151.803C132.262 151.803 131.578 151.099 131.578 150.102C131.578 149.106 132.262 148.382 133.228 148.382C134.214 148.382 134.898 149.106 134.898 150.102ZM141.655 154.893V153.977H138.294L139.804 152.669C141.092 151.552 141.605 150.817 141.605 149.78C141.605 148.382 140.669 147.496 139.21 147.496C137.73 147.496 136.744 148.512 136.714 150.072H137.7C137.72 149.036 138.304 148.382 139.2 148.382C140.075 148.382 140.599 148.925 140.599 149.841C140.599 150.616 140.266 151.109 139.089 152.125L136.744 154.148V154.903L141.655 154.893ZM146.155 149.982V152.578C146.155 153.635 145.682 154.188 144.817 154.188C144.092 154.188 143.64 153.786 143.64 152.729V149.982H142.694V153.041C142.694 154.249 143.338 155.023 144.485 155.023C145.21 155.023 145.864 154.671 146.145 154.158L146.246 154.903H147.091V149.982H146.155ZM153.153 154.893V153.977H149.792L151.302 152.669C152.59 151.552 153.103 150.817 153.103 149.78C153.103 148.382 152.167 147.496 150.708 147.496C149.229 147.496 148.242 148.512 148.212 150.072H149.198C149.219 149.036 149.802 148.382 150.698 148.382C151.573 148.382 152.097 148.925 152.097 149.841C152.097 150.616 151.765 151.109 150.587 152.125L148.242 154.148V154.903L153.153 154.893ZM154.987 149.931C154.242 150.948 153.981 151.552 153.981 152.417C153.981 153.886 155.148 155.023 156.657 155.023C158.157 155.023 159.304 153.937 159.304 152.417C159.304 150.978 158.288 149.891 156.778 149.891C156.527 149.891 156.265 149.941 156.013 150.042L157.835 147.627H156.688L154.987 149.931ZM154.987 152.427C154.987 151.431 155.671 150.726 156.657 150.726C157.623 150.726 158.308 151.431 158.308 152.427C158.308 153.423 157.623 154.138 156.657 154.138C155.671 154.138 154.987 153.423 154.987 152.427ZM162.335 151.139C163.493 151.139 164.097 151.723 164.097 152.598C164.097 153.534 163.483 154.138 162.537 154.138C161.621 154.138 161.037 153.584 161.037 152.638H160.061C160.061 154.148 161.088 155.023 162.517 155.023C163.996 155.023 165.103 154.088 165.103 152.618C165.103 151.31 164.167 150.475 162.929 150.324L164.922 148.422V147.627H160.403V148.502H163.674L161.611 150.485V151.139H162.335Z" fill="#2A3B51"/>
<path opacity="0.4" d="M177.237 147.257H173.727C172.201 147.257 171.291 148.167 171.291 149.693V153.203C171.291 154.729 172.201 155.639 173.727 155.639H177.237C178.763 155.639 179.673 154.729 179.673 153.203V149.693C179.673 148.167 178.763 147.257 177.237 147.257Z" fill="#292D32"/>
<path d="M174.294 152.327C174.374 152.327 174.454 152.297 174.516 152.234L176.353 150.398V151.417C176.353 151.589 176.496 151.731 176.667 151.731C176.839 151.731 176.982 151.589 176.982 151.417V149.639C176.982 149.597 176.974 149.559 176.957 149.517C176.923 149.442 176.865 149.379 176.785 149.345C176.747 149.329 176.705 149.32 176.663 149.32H174.885C174.713 149.32 174.571 149.463 174.571 149.635C174.571 149.807 174.713 149.949 174.885 149.949H175.904L174.068 151.786C173.946 151.907 173.946 152.109 174.068 152.23C174.135 152.297 174.215 152.327 174.294 152.327Z" fill="#292D32"/>
<path d="M178.294 153.245C178.239 153.081 178.063 152.993 177.896 153.048C176.336 153.568 174.621 153.568 173.061 153.048C172.897 152.993 172.717 153.081 172.663 153.245C172.608 153.408 172.696 153.589 172.86 153.643C173.702 153.924 174.587 154.067 175.476 154.067C176.365 154.067 177.25 153.924 178.093 153.643C178.26 153.584 178.348 153.408 178.294 153.245Z" fill="#292D32"/>
<path d="M253.6 154.903L254.244 153.091H257.303L257.957 154.903H258.994L256.327 147.627H255.23L252.573 154.903H253.6ZM255.653 149.197C255.703 149.046 255.753 148.875 255.774 148.774C255.794 148.885 255.844 149.056 255.894 149.197L257.011 152.236H254.546L255.653 149.197Z" fill="#839BBB"/>
<path d="M265.112 151.27C265.112 153.534 266.229 155.034 268.111 155.034C269.983 155.034 271.1 153.534 271.1 151.27C271.1 149.016 269.933 147.486 268.111 147.486C266.28 147.486 265.112 149.016 265.112 151.27ZM266.088 151.27C266.088 149.458 266.833 148.372 268.111 148.372C269.389 148.372 270.124 149.458 270.124 151.27C270.124 153.061 269.389 154.148 268.111 154.148C266.833 154.148 266.088 153.061 266.088 151.27ZM272.784 154.903L273.992 153.101L275.219 154.903H276.316L274.636 152.467L276.347 149.982H275.27L274.052 151.813L272.804 149.982H271.707L273.418 152.467L271.697 154.903H272.784ZM278.333 148.512V154.903H279.279V147.627H276.804V148.512H278.333ZM283.016 155.023C284.586 155.023 285.663 153.967 285.663 152.457C285.663 151.059 284.707 150.022 283.228 150.022C282.684 150.022 282.201 150.173 281.819 150.465L282.302 148.533H285.23V147.627H281.587L280.702 151.36L281.537 151.572C281.869 151.159 282.433 150.867 283.046 150.867C284.063 150.867 284.657 151.562 284.657 152.498C284.657 153.484 284.023 154.138 283.036 154.138C282.111 154.138 281.537 153.564 281.537 152.628H280.561C280.561 154.078 281.527 155.023 283.016 155.023ZM290.694 152.598C291.439 151.582 291.701 150.968 291.701 150.113C291.701 148.633 290.533 147.496 289.024 147.496C287.524 147.496 286.377 148.593 286.377 150.102C286.377 151.552 287.393 152.638 288.903 152.638C289.155 152.638 289.416 152.588 289.668 152.488L287.846 154.903H288.994L290.694 152.598ZM290.694 150.102C290.694 151.099 290.01 151.803 289.024 151.803C288.058 151.803 287.373 151.099 287.373 150.102C287.373 149.106 288.058 148.382 289.024 148.382C290.01 148.382 290.694 149.106 290.694 150.102ZM292.479 152.447C292.479 153.997 293.435 155.023 294.884 155.023C296.071 155.023 296.987 154.309 297.178 153.242H296.232C296.061 153.826 295.558 154.178 294.884 154.178C293.988 154.178 293.415 153.494 293.415 152.437C293.415 151.37 294.028 150.686 294.924 150.686C295.558 150.686 296.061 151.018 296.222 151.642H297.168C296.997 150.545 296.132 149.841 294.894 149.841C293.455 149.841 292.479 150.908 292.479 152.447ZM297.965 152.88C297.965 154.168 299.022 155.023 300.642 155.023C302.252 155.023 303.319 154.168 303.319 152.89C303.319 151.994 302.795 151.27 301.98 151.008C302.665 150.736 303.047 150.163 303.047 149.418C303.047 148.271 302.081 147.496 300.652 147.496C299.203 147.496 298.227 148.271 298.227 149.408C298.227 150.143 298.599 150.716 299.283 151.008C298.478 151.3 297.965 152.004 297.965 152.88ZM299.132 149.469C299.132 148.794 299.726 148.351 300.632 148.351C301.548 148.351 302.121 148.794 302.121 149.489C302.121 150.193 301.548 150.646 300.632 150.646C299.726 150.646 299.132 150.183 299.132 149.469ZM298.931 152.81C298.931 152.004 299.595 151.491 300.632 151.491C301.678 151.491 302.343 152.004 302.343 152.81C302.343 153.625 301.668 154.148 300.642 154.148C299.605 154.148 298.931 153.625 298.931 152.81ZM309.018 154.893V153.977H305.657L307.166 152.669C308.454 151.552 308.968 150.817 308.968 149.78C308.968 148.382 308.032 147.496 306.573 147.496C305.093 147.496 304.107 148.512 304.077 150.072H305.063C305.083 149.036 305.667 148.382 306.562 148.382C307.438 148.382 307.961 148.925 307.961 149.841C307.961 150.616 307.629 151.109 306.452 152.125L304.107 154.148V154.903L309.018 154.893ZM309.593 149.982V150.777H310.318V154.903H311.264V150.777H312.431V149.982H311.264V149.197C311.264 148.663 311.425 148.351 312.039 148.351H312.462V147.536C312.27 147.506 312.059 147.496 311.878 147.496C310.982 147.496 310.318 147.989 310.318 149.197V149.982H309.593ZM318.544 153.433V152.558H317.678V147.627H316.4L312.969 152.558V153.433H316.732V154.903H317.678V153.433H318.544ZM314.035 152.558L316.732 148.673V152.558H314.035ZM321.855 155.023C323.424 155.023 324.501 153.967 324.501 152.457C324.501 151.059 323.545 150.022 322.066 150.022C321.522 150.022 321.039 150.173 320.657 150.465L321.14 148.533H324.068V147.627H320.426L319.54 151.36L320.375 151.572C320.707 151.159 321.271 150.867 321.885 150.867C322.901 150.867 323.495 151.562 323.495 152.498C323.495 153.484 322.861 154.138 321.875 154.138C320.949 154.138 320.375 153.564 320.375 152.628H319.399C319.399 154.078 320.365 155.023 321.855 155.023ZM326.281 149.931C325.536 150.948 325.274 151.552 325.274 152.417C325.274 153.886 326.442 155.023 327.951 155.023C329.451 155.023 330.598 153.937 330.598 152.417C330.598 150.978 329.581 149.891 328.072 149.891C327.82 149.891 327.559 149.941 327.307 150.042L329.128 147.627H327.981L326.281 149.931ZM326.281 152.427C326.281 151.431 326.965 150.726 327.951 150.726C328.917 150.726 329.601 151.431 329.601 152.427C329.601 153.423 328.917 154.138 327.951 154.138C326.965 154.138 326.281 153.423 326.281 152.427ZM332.664 154.903V153.504L333.499 152.628L334.938 154.903H336.025L334.153 151.944L336.035 149.982H334.848L332.664 152.296V147.496H331.718V154.903H332.664ZM340.34 154.903V154.108H337.664L340.34 150.757V149.982H336.506V150.777H339.163L336.506 154.138V154.903H340.34ZM345.453 152.598C346.198 151.582 346.459 150.968 346.459 150.113C346.459 148.633 345.292 147.496 343.782 147.496C342.283 147.496 341.136 148.593 341.136 150.102C341.136 151.552 342.152 152.638 343.662 152.638C343.913 152.638 344.175 152.588 344.427 152.488L342.605 154.903H343.752L345.453 152.598ZM345.453 150.102C345.453 151.099 344.769 151.803 343.782 151.803C342.816 151.803 342.132 151.099 342.132 150.102C342.132 149.106 342.816 148.382 343.782 148.382C344.769 148.382 345.453 149.106 345.453 150.102ZM352.21 154.893V153.977H348.849L350.358 152.669C351.646 151.552 352.159 150.817 352.159 149.78C352.159 148.382 351.224 147.496 349.764 147.496C348.285 147.496 347.299 148.512 347.269 150.072H348.255C348.275 149.036 348.859 148.382 349.754 148.382C350.63 148.382 351.153 148.925 351.153 149.841C351.153 150.616 350.821 151.109 349.644 152.125L347.299 154.148V154.903L352.21 154.893ZM356.71 149.982V152.578C356.71 153.635 356.237 154.188 355.372 154.188C354.647 154.188 354.194 153.786 354.194 152.729V149.982H353.248V153.041C353.248 154.249 353.892 155.023 355.039 155.023C355.764 155.023 356.418 154.671 356.7 154.158L356.801 154.903H357.646V149.982H356.71ZM358.415 147.627V148.533H362.5L359.713 154.903H360.739L363.497 148.533V147.627H358.415ZM363.898 151.27C363.898 153.534 365.015 155.034 366.897 155.034C368.769 155.034 369.886 153.534 369.886 151.27C369.886 149.016 368.719 147.486 366.897 147.486C365.066 147.486 363.898 149.016 363.898 151.27ZM364.874 151.27C364.874 149.458 365.619 148.372 366.897 148.372C368.175 148.372 368.91 149.458 368.91 151.27C368.91 153.061 368.175 154.148 366.897 154.148C365.619 154.148 364.874 153.061 364.874 151.27ZM370.306 147.627V148.533H374.392L371.604 154.903H372.63L375.388 148.533V147.627H370.306Z" fill="#2A3B51"/>
<rect x="22.9571" y="175.794" width="496.249" height="52.2036" rx="2.83032" stroke="#BC2121" stroke-opacity="0.2" stroke-width="0.628959"/>
<path d="M52.3051 194.027V193.111H48.8534V190.807H51.9629V189.931H48.8534V187.657H52.3051V186.751H47.8671V194.027H52.3051ZM53.2511 191.572C53.2511 193.122 54.2071 194.148 55.6563 194.148C56.8437 194.148 57.7595 193.433 57.9507 192.367H57.0047C56.8337 192.95 56.3305 193.303 55.6563 193.303C54.7606 193.303 54.187 192.618 54.187 191.562C54.187 190.495 54.8009 189.811 55.6965 189.811C56.3305 189.811 56.8337 190.143 56.9947 190.767H57.9406C57.7696 189.67 56.9041 188.965 55.6663 188.965C54.2273 188.965 53.2511 190.032 53.2511 191.572ZM59.8947 194.017V191.34C59.8947 190.495 60.3878 189.831 61.3036 189.831C62.008 189.831 62.481 190.233 62.481 191.23V194.027H63.427V191.018C63.427 189.76 62.8232 188.965 61.5653 188.965C60.8004 188.965 60.2067 189.328 59.8947 189.861V186.621H58.9488V194.017H59.8947ZM66.8605 194.148C68.0782 194.148 68.9034 193.554 69.1449 192.498H68.2593C68.0983 193.061 67.6153 193.363 66.8807 193.363C65.9448 193.363 65.4014 192.789 65.3309 191.753L69.1349 191.743V191.391C69.1349 189.931 68.2191 188.965 66.8203 188.965C65.3913 188.965 64.4151 190.032 64.4151 191.572C64.4151 193.101 65.4114 194.148 66.8605 194.148ZM66.8203 189.76C67.6555 189.76 68.1889 190.304 68.1889 191.119H65.351C65.4718 190.253 65.9951 189.76 66.8203 189.76ZM69.8694 191.572C69.8694 193.122 70.8254 194.148 72.2745 194.148C73.462 194.148 74.3778 193.433 74.569 192.367H73.623C73.452 192.95 72.9488 193.303 72.2745 193.303C71.3789 193.303 70.8053 192.618 70.8053 191.562C70.8053 190.495 71.4192 189.811 72.3148 189.811C72.9488 189.811 73.452 190.143 73.613 190.767H74.5589C74.3878 189.67 73.5224 188.965 72.2846 188.965C70.8455 188.965 69.8694 190.032 69.8694 191.572ZM80.2912 194.148C81.0761 194.148 81.7403 193.806 82.0623 193.132L82.1428 194.027H82.9882V186.621H82.0523V189.901C81.7202 189.297 81.0862 188.965 80.3314 188.965C78.8722 188.965 77.9967 190.072 77.9967 191.582C77.9967 193.081 78.8622 194.148 80.2912 194.148ZM80.4824 193.293C79.5163 193.293 78.9528 192.568 78.9528 191.552C78.9528 190.545 79.5163 189.821 80.4824 189.821C81.4485 189.821 82.0422 190.545 82.0422 191.552C82.0422 192.578 81.4485 193.293 80.4824 193.293ZM87.7543 189.106V191.703C87.7543 192.759 87.2813 193.313 86.4158 193.313C85.6913 193.313 85.2384 192.91 85.2384 191.854V189.106H84.2925V192.166C84.2925 193.373 84.9365 194.148 86.0837 194.148C86.8083 194.148 87.4624 193.796 87.7442 193.283L87.8448 194.027H88.6901V189.106H87.7543ZM94.2031 194.027V189.901H95.1691V189.106H94.2031V187.567H93.2571V189.106H92.291V189.901H93.2571V194.027H94.2031ZM98.8358 189.066C98.6446 189.026 98.5037 189.006 98.3326 189.006C97.6584 189.006 97.1653 189.348 96.964 189.861L96.9036 189.116H96.0181V194.027H96.964V191.421C96.964 190.475 97.5175 189.931 98.4131 189.931H98.8358V189.066ZM100.966 194.148C101.761 194.148 102.435 193.796 102.686 193.232L102.787 194.027H103.592V190.938C103.592 189.609 102.767 188.965 101.549 188.965C100.281 188.965 99.4359 189.64 99.4359 190.666H100.261C100.261 190.072 100.714 189.72 101.509 189.72C102.173 189.72 102.666 190.012 102.666 190.837V190.978L101.116 191.099C99.9592 191.189 99.285 191.753 99.285 192.659C99.285 193.554 99.9089 194.148 100.966 194.148ZM101.237 193.413C100.623 193.413 100.241 193.152 100.241 192.628C100.241 192.145 100.583 191.823 101.418 191.743L102.676 191.642V191.904C102.676 192.83 102.133 193.413 101.237 193.413ZM105.848 194.027V191.421C105.848 190.465 106.361 189.831 107.247 189.831C107.971 189.831 108.434 190.233 108.434 191.23V194.027H109.38V191.018C109.38 189.76 108.787 188.965 107.488 188.965C106.794 188.965 106.17 189.297 105.858 189.861L105.758 189.106H104.902V194.027H105.848ZM110.229 192.598C110.229 193.534 110.964 194.148 112.121 194.148C113.288 194.148 114.093 193.554 114.093 192.618C114.093 191.884 113.681 191.501 112.845 191.3L111.98 191.089C111.497 190.968 111.255 190.747 111.255 190.414C111.255 189.962 111.588 189.7 112.181 189.7C112.755 189.7 113.087 190.012 113.107 190.505H114.013C113.993 189.569 113.288 188.965 112.211 188.965C111.125 188.965 110.36 189.539 110.36 190.445C110.36 191.169 110.772 191.602 111.648 191.813L112.513 192.015C113.027 192.145 113.188 192.347 113.188 192.679C113.188 193.132 112.805 193.403 112.141 193.403C111.517 193.403 111.135 193.101 111.135 192.598H110.229ZM114.619 189.106V189.901H115.344V194.027H116.29V189.901H117.457V189.106H116.29V188.321C116.29 187.788 116.451 187.476 117.064 187.476H117.487V186.661C117.296 186.631 117.085 186.621 116.903 186.621C116.008 186.621 115.344 187.114 115.344 188.321V189.106H114.619ZM120.312 194.148C121.53 194.148 122.355 193.554 122.597 192.498H121.711C121.55 193.061 121.067 193.363 120.332 193.363C119.396 193.363 118.853 192.789 118.783 191.753L122.587 191.743V191.391C122.587 189.931 121.671 188.965 120.272 188.965C118.843 188.965 117.867 190.032 117.867 191.572C117.867 193.101 118.863 194.148 120.312 194.148ZM120.272 189.76C121.107 189.76 121.641 190.304 121.641 191.119H118.803C118.924 190.253 119.447 189.76 120.272 189.76ZM126.461 189.066C126.27 189.026 126.129 189.006 125.958 189.006C125.283 189.006 124.79 189.348 124.589 189.861L124.529 189.116H123.643V194.027H124.589V191.421C124.589 190.475 125.143 189.931 126.038 189.931H126.461V189.066ZM128.933 194.027V189.901H129.899V189.106H128.933V187.567H127.987V189.106H127.021V189.901H127.987V194.027H128.933Z" fill="#BC2121"/>
<path d="M42.5073 189.946C42.5073 192.58 40.3719 194.715 37.7377 194.715C35.1035 194.715 32.9681 192.58 32.9681 189.946C32.9681 187.312 35.1035 185.176 37.7377 185.176C40.3719 185.176 42.5073 187.312 42.5073 189.946Z" fill="#BC2121" stroke="#BC2121" stroke-width="0.524133"/>
<path d="M40.3682 190.749L40.3682 190.749L40.3729 190.751C40.3991 190.762 40.4225 190.783 40.4386 190.816C40.4479 190.844 40.446 190.874 40.4364 190.896C40.4261 190.919 40.4176 190.93 40.4101 190.938L38.8805 192.468C38.8567 192.491 38.8289 192.501 38.7991 192.501C38.7692 192.501 38.7414 192.491 38.7177 192.468C38.6741 192.424 38.6741 192.348 38.7177 192.305L39.6033 191.419L40.0507 190.972H39.418H35.141C35.0795 190.972 35.0257 190.918 35.0257 190.857C35.0257 190.795 35.0795 190.741 35.141 190.741H40.3287C40.3448 190.741 40.3586 190.745 40.3682 190.749Z" fill="#BC2121" stroke="white" stroke-width="0.524133"/>
<path d="M35.8665 188.467L35.4191 188.915H36.0518H40.3287C40.3976 188.915 40.449 188.971 40.449 189.03C40.449 189.092 40.3953 189.145 40.3337 189.145H35.1461C35.13 189.145 35.1162 189.142 35.1066 189.138L35.1066 189.138L35.1019 189.136C35.0741 189.124 35.0495 189.101 35.0333 189.064C35.0232 189.042 35.0232 189.013 35.0333 188.991C35.0436 188.967 35.0522 188.956 35.0597 188.949L36.5893 187.419C36.6329 187.375 36.7085 187.375 36.7521 187.419C36.7956 187.463 36.7956 187.538 36.7521 187.582C36.7521 187.582 36.7521 187.582 36.7521 187.582L35.8665 188.467Z" fill="#BC2121" stroke="white" stroke-width="0.524133"/>
</g>
<defs>
<clipPath id="clip0_845_3032">
<rect width="566.063" height="278" fill="white"/>
</clipPath>
</defs>
</svg>
