<svg width="699" height="102" viewBox="0 0 699 102" fill="none" xmlns="http://www.w3.org/2000/svg">
<path d="M13 93.067C17.8333 66.067 43 13.567 105 19.567C167 25.567 195.167 66.7337 201.5 86.5671C238.333 91.9004 309.1 85.9669 297.5 19.567C328.833 5.90038 393.2 1.1671 400 91.5671C433.167 97.2338 497.9 90.7671 491.5 19.567C529.5 10.4004 602.8 11.9673 592 91.5671C627.667 97.4004 695.9 91.1671 683.5 19.567" stroke="url(#paint0_linear_763_651)" stroke-dasharray="10 10"/>
<rect x="91" width="32" height="32" rx="8" fill="#F5B300"/>
<path d="M101.378 7.35665C101.966 7.5169 102.553 7.62374 103.141 7.78399C103.729 7.94424 104.316 8.05107 104.904 8.21132C105.064 8.26474 105.117 8.21132 105.171 8.05107C105.385 7.14299 105.598 6.28832 105.812 5.38023C105.865 5.21998 105.919 5.16657 106.079 5.21998C106.613 5.38023 107.094 5.48707 107.628 5.5939C107.788 5.64732 107.788 5.70073 107.735 5.80757C107.521 6.66224 107.308 7.57032 107.094 8.42499C107.094 8.47841 107.094 8.53182 107.04 8.63866C107.468 8.74549 107.949 8.85232 108.376 8.95916C108.429 8.95916 108.483 8.85232 108.536 8.79891C108.696 8.10449 108.857 7.46349 109.07 6.76907C109.124 6.5554 109.177 6.34173 109.231 6.12807C109.231 6.02123 109.284 5.96782 109.391 6.02123C109.925 6.18148 110.459 6.28832 111.047 6.44857C111.1 6.44857 111.1 6.50199 111.154 6.50199C110.993 7.1964 110.833 7.83741 110.673 8.47841C110.619 8.74549 110.566 9.01257 110.459 9.27966C110.406 9.43991 110.459 9.49333 110.619 9.54674C111.207 9.81383 111.795 10.0809 112.382 10.348C112.916 10.6685 113.397 11.0958 113.771 11.63C114.252 12.4312 114.305 13.2859 114.091 14.1406C113.931 14.7282 113.718 15.2623 113.29 15.6897C112.97 16.0102 112.542 16.2238 112.115 16.3841C112.062 16.3841 112.008 16.4375 111.901 16.4375C112.115 16.5978 112.329 16.7046 112.542 16.8648C113.183 17.3456 113.611 17.9332 113.824 18.681C113.931 19.2686 113.878 19.9096 113.718 20.4972C113.504 21.245 113.237 21.886 112.756 22.4736C112.168 23.168 111.421 23.5419 110.566 23.6488C109.444 23.809 108.376 23.7022 107.308 23.5419C107.147 23.4885 107.04 23.5419 106.987 23.7022C106.773 24.5569 106.56 25.4649 106.346 26.3196C106.293 26.5333 106.293 26.5867 106.026 26.4799C105.545 26.373 105.011 26.2128 104.53 26.106C104.37 26.0525 104.37 25.9991 104.423 25.8923C104.637 24.9842 104.85 24.0761 105.117 23.2214C105.117 23.1146 105.171 23.0612 105.064 23.0078C104.637 22.9009 104.209 22.7941 103.729 22.6873C103.622 23.168 103.462 23.6488 103.355 24.1295C103.248 24.6103 103.088 25.091 102.981 25.5718C102.927 25.6786 102.927 25.732 102.767 25.6786C102.233 25.5184 101.699 25.4115 101.165 25.3047C101.004 25.2513 101.004 25.1979 101.058 25.091C101.271 24.1829 101.485 23.2749 101.752 22.4202C101.752 22.3668 101.806 22.3134 101.806 22.2065C100.577 21.886 99.3484 21.5655 98.0664 21.245C98.1732 21.0314 98.2267 20.8711 98.3335 20.6574C98.5472 20.1767 98.7608 19.6959 98.9211 19.2686C98.9745 19.1083 99.0279 19.1083 99.1882 19.1083C99.5621 19.2152 99.9894 19.322 100.363 19.3754C100.791 19.4823 101.111 19.2686 101.165 18.8947C101.859 16.1704 102.553 13.4462 103.194 10.6685C103.301 10.2412 103.034 9.76041 102.553 9.60016C102.073 9.43991 101.592 9.33308 101.165 9.22624C101.058 9.22624 101.004 9.17283 101.058 9.06599C101.218 8.47841 101.378 7.83741 101.538 7.24982C101.325 7.41007 101.325 7.41007 101.378 7.35665ZM104.103 20.5506C104.156 20.5506 104.209 20.604 104.209 20.604C105.064 20.8177 105.972 21.0848 106.88 21.1382C107.521 21.1916 108.109 21.1916 108.696 20.9779C109.711 20.6574 110.139 19.322 109.551 18.4673C109.284 18.04 108.857 17.7729 108.429 17.5058C107.468 16.9717 106.346 16.758 105.278 16.5443C105.117 16.4909 105.117 16.5443 105.064 16.7046C104.957 17.2388 104.797 17.7195 104.69 18.2537C104.476 19.0015 104.316 19.7494 104.103 20.5506ZM108.59 15.1021C108.696 15.1021 108.963 15.0487 109.177 14.9953C110.192 14.7816 110.726 13.6064 110.192 12.6983C109.925 12.2176 109.444 11.8971 108.963 11.6834C108.216 11.3629 107.468 11.2027 106.667 10.989C106.506 10.9356 106.453 10.989 106.399 11.1492C106.132 12.271 105.865 13.3393 105.545 14.4611C105.491 14.5679 105.545 14.6213 105.652 14.6748C105.865 14.7282 106.026 14.7816 106.239 14.835C107.04 14.9418 107.735 15.1021 108.59 15.1021Z" fill="white"/>
<rect x="283" width="32" height="32" rx="8" fill="#0033AD"/>
<path d="M294.041 16.0436C294.017 16.4503 294.156 16.8495 294.427 17.1537C294.698 17.4579 295.079 17.6421 295.485 17.6658H295.569C295.868 17.6655 296.161 17.5775 296.411 17.4127C296.661 17.2479 296.858 17.0135 296.976 16.7384C297.094 16.4633 297.129 16.1596 297.077 15.8647C297.025 15.5699 296.887 15.2968 296.682 15.0791C296.476 14.8615 296.211 14.7089 295.92 14.6401C295.628 14.5713 295.323 14.5893 295.042 14.692C294.76 14.7946 294.515 14.9774 294.337 15.2178C294.158 15.4581 294.054 15.7455 294.036 16.0445L294.041 16.0436Z" fill="white"/>
<path d="M288.323 15.6548C288.225 15.6494 288.128 15.673 288.043 15.7227C287.959 15.7725 287.891 15.8461 287.849 15.9343C287.806 16.0225 287.791 16.1214 287.805 16.2183C287.818 16.3153 287.86 16.406 287.926 16.479C287.991 16.5521 288.076 16.6042 288.171 16.6287C288.266 16.6532 288.366 16.6491 288.458 16.6169C288.551 16.5846 288.631 16.5257 288.69 16.4475C288.749 16.3693 288.784 16.2754 288.789 16.1777C288.793 16.1127 288.784 16.0476 288.763 15.986C288.741 15.9245 288.708 15.8679 288.665 15.8193C288.621 15.7707 288.569 15.7311 288.51 15.7029C288.451 15.6747 288.388 15.6584 288.323 15.6548Z" fill="white"/>
<path d="M293.943 7.14408C294.031 7.09937 294.102 7.0299 294.15 6.94442C294.198 6.85893 294.219 6.76126 294.211 6.66369C294.204 6.56611 294.167 6.47301 294.107 6.39609C294.046 6.31916 293.964 6.26186 293.871 6.2314C293.778 6.20094 293.678 6.19867 293.584 6.22489C293.49 6.25111 293.405 6.30464 293.341 6.37874C293.277 6.45284 293.237 6.54421 293.225 6.64133C293.213 6.73845 293.229 6.83699 293.273 6.92454C293.303 6.98315 293.343 7.03535 293.393 7.07815C293.443 7.12094 293.5 7.15348 293.563 7.17389C293.625 7.1943 293.691 7.20217 293.756 7.19705C293.821 7.19194 293.885 7.17393 293.943 7.14408Z" fill="white"/>
<path d="M295.499 9.85727C295.635 9.78906 295.747 9.68229 295.821 9.55046C295.896 9.41863 295.93 9.26765 295.918 9.11662C295.907 8.96559 295.851 8.82128 295.758 8.70194C295.665 8.5826 295.538 8.49359 295.394 8.44615C295.251 8.39872 295.096 8.39499 294.95 8.43545C294.804 8.4759 294.673 8.55871 294.574 8.67342C294.476 8.78813 294.413 8.92959 294.394 9.0799C294.376 9.23021 294.402 9.38264 294.471 9.51791C294.516 9.60778 294.578 9.68785 294.654 9.75355C294.731 9.81925 294.819 9.86929 294.915 9.9008C295.01 9.93232 295.111 9.94469 295.211 9.93722C295.312 9.92975 295.41 9.90258 295.499 9.85727Z" fill="white"/>
<path d="M290.263 11.7233C290.368 11.7919 290.49 11.828 290.615 11.8271C290.74 11.8261 290.861 11.7882 290.965 11.718C291.068 11.6479 291.148 11.5487 291.195 11.433C291.242 11.3173 291.253 11.1903 291.228 11.0681C291.202 10.9458 291.141 10.8339 291.052 10.7463C290.963 10.6588 290.851 10.5996 290.728 10.5763C290.605 10.553 290.478 10.5665 290.364 10.6153C290.249 10.6641 290.151 10.7458 290.082 10.8502C289.991 10.99 289.958 11.1605 289.992 11.3242C290.026 11.4879 290.124 11.6315 290.263 11.7233Z" fill="white"/>
<path d="M291.196 15.3758C291.045 15.3673 290.894 15.4038 290.764 15.4807C290.633 15.5575 290.529 15.6714 290.463 15.8078C290.397 15.9442 290.373 16.097 290.394 16.247C290.415 16.397 290.48 16.5373 290.581 16.6503C290.682 16.7633 290.814 16.8439 290.961 16.8819C291.107 16.9198 291.262 16.9135 291.405 16.8636C291.548 16.8137 291.673 16.7226 291.764 16.6017C291.855 16.4808 291.909 16.3356 291.917 16.1844C291.929 15.9815 291.859 15.7824 291.724 15.6308C291.589 15.4792 291.399 15.3875 291.196 15.3758Z" fill="white"/>
<path d="M290.347 20.5248C290.236 20.5811 290.144 20.6691 290.082 20.7778C290.021 20.8864 289.993 21.0108 290.003 21.1352C290.012 21.2597 290.058 21.3785 290.135 21.4768C290.212 21.575 290.316 21.6483 290.434 21.6873C290.553 21.7263 290.68 21.7293 290.801 21.6959C290.921 21.6625 291.028 21.5942 291.11 21.4996C291.191 21.4051 291.243 21.2885 291.258 21.1647C291.273 21.0408 291.251 20.9153 291.195 20.8039C291.158 20.7298 291.106 20.6639 291.043 20.6098C290.981 20.5557 290.908 20.5145 290.829 20.4886C290.75 20.4627 290.667 20.4526 290.584 20.4588C290.502 20.465 290.421 20.4874 290.347 20.5248Z" fill="white"/>
<path d="M293.324 13.793C293.473 13.8907 293.648 13.942 293.826 13.9405C294.005 13.9389 294.179 13.8845 294.326 13.7841C294.473 13.6837 294.588 13.5419 294.654 13.3766C294.721 13.2112 294.737 13.0298 294.701 12.8552C294.665 12.6807 294.578 12.5208 294.45 12.3958C294.323 12.2708 294.162 12.1864 293.987 12.1531C293.811 12.1198 293.63 12.1393 293.466 12.2089C293.302 12.2786 293.162 12.3954 293.064 12.5445C292.999 12.6435 292.955 12.7543 292.932 12.8707C292.91 12.987 292.911 13.1066 292.935 13.2226C292.96 13.3386 293.006 13.4486 293.073 13.5465C293.14 13.6444 293.225 13.7281 293.324 13.793Z" fill="white"/>
<path d="M302.769 9.79694C302.896 9.87976 303.045 9.92309 303.197 9.92143C303.348 9.91977 303.496 9.8732 303.621 9.78761C303.746 9.70202 303.843 9.58126 303.9 9.44058C303.956 9.2999 303.97 9.14562 303.938 8.99725C303.907 8.84887 303.833 8.71307 303.725 8.60699C303.616 8.50092 303.479 8.42934 303.33 8.4013C303.181 8.37327 303.027 8.39003 302.888 8.44948C302.748 8.50893 302.629 8.60839 302.546 8.73529C302.491 8.81958 302.453 8.91395 302.434 9.01298C302.416 9.11201 302.417 9.21375 302.437 9.31238C302.458 9.411 302.498 9.50457 302.555 9.58772C302.612 9.67088 302.685 9.74197 302.769 9.79694Z" fill="white"/>
<path d="M304.341 7.09213C304.423 7.14593 304.519 7.17417 304.618 7.17329C304.716 7.17241 304.811 7.14244 304.893 7.08717C304.974 7.03191 305.036 6.95383 305.073 6.86281C305.11 6.7718 305.119 6.67194 305.099 6.57588C305.079 6.47981 305.031 6.39186 304.961 6.32314C304.89 6.25442 304.802 6.20802 304.705 6.18982C304.609 6.17162 304.509 6.18243 304.419 6.22089C304.328 6.25935 304.252 6.32373 304.198 6.40587C304.126 6.5159 304.101 6.64998 304.128 6.77865C304.154 6.90732 304.231 7.02007 304.341 7.09213Z" fill="white"/>
<path d="M302.89 14.584C302.689 14.5724 302.487 14.6006 302.297 14.6669C302.107 14.7331 301.932 14.8362 301.781 14.9703C301.478 15.2409 301.294 15.6212 301.271 16.0273C301.247 16.4334 301.386 16.8322 301.657 17.1359C301.928 17.4395 302.308 17.6232 302.714 17.6466C302.743 17.6466 302.773 17.6466 302.803 17.6466C303.099 17.6464 303.388 17.5607 303.636 17.3997C303.885 17.2388 304.081 17.0094 304.202 16.7394C304.323 16.4693 304.363 16.1701 304.317 15.8777C304.272 15.5854 304.143 15.3124 303.946 15.0918C303.812 14.9413 303.65 14.8189 303.469 14.7317C303.288 14.6445 303.091 14.5943 302.89 14.584Z" fill="white"/>
<path d="M296.003 13.6866C296.13 13.9409 296.326 14.1546 296.568 14.3037C296.811 14.4528 297.09 14.5313 297.374 14.5303C297.636 14.5304 297.894 14.4633 298.123 14.3353C298.352 14.2074 298.544 14.023 298.681 13.7996C298.819 13.5762 298.896 13.3214 298.907 13.0594C298.918 12.7975 298.861 12.5371 298.743 12.3032C298.615 12.05 298.419 11.8375 298.177 11.6895C297.935 11.5415 297.656 11.4639 297.372 11.4652C297.111 11.4657 296.854 11.5329 296.626 11.6605C296.398 11.7881 296.206 11.9719 296.069 12.1944C295.932 12.417 295.854 12.6708 295.842 12.932C295.831 13.1931 295.886 13.4529 296.003 13.6866Z" fill="white"/>
<path d="M308.027 11.7216C308.139 11.6654 308.231 11.5775 308.292 11.4689C308.354 11.3603 308.381 11.2359 308.372 11.1115C308.363 10.9871 308.317 10.8682 308.24 10.7699C308.163 10.6716 308.059 10.5983 307.941 10.5592C307.822 10.5201 307.695 10.517 307.575 10.5503C307.454 10.5835 307.347 10.6517 307.265 10.7462C307.184 10.8406 307.132 10.9571 307.117 11.0809C307.101 11.2048 307.123 11.3303 307.179 11.4418C307.255 11.5913 307.386 11.7047 307.545 11.7572C307.704 11.8097 307.878 11.7969 308.027 11.7216Z" fill="white"/>
<path d="M304.138 12.2101C303.979 12.2904 303.847 12.416 303.759 12.5712C303.672 12.7263 303.632 12.9041 303.645 13.0819C303.658 13.2598 303.724 13.4297 303.833 13.5702C303.943 13.7108 304.092 13.8157 304.261 13.8715C304.431 13.9274 304.613 13.9319 304.785 13.8843C304.957 13.8367 305.11 13.7392 305.227 13.6041C305.343 13.4691 305.417 13.3025 305.439 13.1256C305.461 12.9486 305.429 12.7691 305.349 12.6098C305.296 12.504 305.223 12.4097 305.133 12.3323C305.043 12.255 304.939 12.196 304.827 12.1589C304.714 12.1218 304.596 12.1072 304.477 12.116C304.359 12.1248 304.244 12.1568 304.138 12.2101Z" fill="white"/>
<path d="M299.129 6.86086C299.254 6.86796 299.378 6.83794 299.485 6.7746C299.593 6.71126 299.679 6.61745 299.734 6.50503C299.788 6.39261 299.807 6.26663 299.79 6.14304C299.773 6.01944 299.719 5.90378 299.636 5.81068C299.553 5.71758 299.444 5.65123 299.323 5.62002C299.202 5.58881 299.075 5.59414 298.957 5.63534C298.839 5.67654 298.736 5.75176 298.661 5.85148C298.586 5.9512 298.542 6.07094 298.535 6.19555C298.526 6.36254 298.583 6.52642 298.695 6.65118C298.806 6.77593 298.962 6.85135 299.129 6.86086Z" fill="white"/>
<path d="M299.123 10.8318C299.301 10.8417 299.478 10.7987 299.631 10.7082C299.785 10.6176 299.908 10.4836 299.985 10.323C300.063 10.1624 300.091 9.98244 300.066 9.80591C300.041 9.62938 299.964 9.46419 299.846 9.33119C299.727 9.1982 299.572 9.10338 299.399 9.05872C299.226 9.01407 299.044 9.02157 298.876 9.0803C298.708 9.13902 298.561 9.24632 298.453 9.38864C298.346 9.53096 298.283 9.70192 298.273 9.87989C298.259 10.1188 298.341 10.3532 298.501 10.5317C298.66 10.7102 298.884 10.8182 299.123 10.8318Z" fill="white"/>
<path d="M294.238 20.0355C294.397 19.9552 294.529 19.8295 294.616 19.6743C294.704 19.519 294.744 19.3413 294.731 19.1634C294.718 18.9856 294.652 18.8157 294.542 18.6752C294.432 18.5346 294.283 18.4299 294.114 18.3741C293.944 18.3183 293.762 18.314 293.59 18.3617C293.419 18.4094 293.265 18.507 293.148 18.6422C293.032 18.7773 292.958 18.9439 292.937 19.1209C292.915 19.298 292.946 19.4774 293.027 19.6366C293.134 19.8501 293.323 20.012 293.55 20.0868C293.777 20.1615 294.024 20.1431 294.238 20.0355Z" fill="white"/>
<path d="M299.705 12.1473C299.518 12.4327 299.432 12.7722 299.459 13.1123C299.487 13.4523 299.627 13.7734 299.858 14.0248C300.089 14.2761 300.397 14.4433 300.733 14.4999C301.07 14.5565 301.415 14.4993 301.716 14.3373C302.016 14.1753 302.254 13.9178 302.391 13.6055C302.528 13.2933 302.558 12.9441 302.475 12.6132C302.391 12.2824 302.2 11.9888 301.931 11.7789C301.662 11.569 301.331 11.4548 300.99 11.4543C300.735 11.4542 300.484 11.5174 300.26 11.6384C300.035 11.7594 299.845 11.9343 299.705 12.1473Z" fill="white"/>
<path d="M302.371 18.5599C302.248 18.3163 302.063 18.1099 301.834 17.9619C301.604 17.814 301.34 17.7299 301.067 17.7183C300.795 17.7068 300.524 17.7682 300.283 17.8961C300.042 18.0241 299.839 18.2141 299.696 18.4464C299.553 18.6788 299.475 18.9451 299.469 19.2178C299.463 19.4906 299.53 19.76 299.663 19.9982C299.797 20.2364 299.991 20.4348 300.226 20.5729C300.461 20.7109 300.729 20.7837 301.002 20.7837C301.242 20.7821 301.478 20.7247 301.693 20.6162C302.055 20.4329 302.329 20.1136 302.457 19.7282C302.584 19.3428 302.553 18.9227 302.371 18.5599Z" fill="white"/>
<path d="M305.051 18.4527C304.902 18.3548 304.727 18.3033 304.549 18.3048C304.37 18.3062 304.197 18.3605 304.049 18.4608C303.902 18.5611 303.787 18.7028 303.72 18.8681C303.653 19.0334 303.637 19.2148 303.673 19.3894C303.71 19.564 303.797 19.724 303.924 19.8491C304.051 19.9741 304.212 20.0587 304.387 20.092C304.563 20.1254 304.744 20.1061 304.908 20.0365C305.072 19.9669 305.212 19.8502 305.31 19.7012C305.441 19.5011 305.487 19.2574 305.438 19.0234C305.39 18.7894 305.25 18.5842 305.051 18.4527Z" fill="white"/>
<path d="M307.987 16.1492C307.996 15.998 307.959 15.8477 307.882 15.7172C307.805 15.5867 307.691 15.482 307.555 15.4162C307.419 15.3504 307.266 15.3266 307.116 15.3477C306.966 15.3687 306.825 15.4338 306.712 15.5346C306.599 15.6354 306.519 15.7675 306.481 15.9141C306.443 16.0607 306.449 16.2153 306.499 16.3582C306.549 16.5012 306.64 16.6262 306.761 16.7174C306.882 16.8087 307.027 16.862 307.178 16.8707C307.381 16.8821 307.58 16.8125 307.732 16.6773C307.884 16.542 307.975 16.3521 307.987 16.1492Z" fill="white"/>
<path d="M310.109 15.6037C310.011 15.5981 309.913 15.6216 309.829 15.6713C309.744 15.7211 309.676 15.7948 309.633 15.8831C309.591 15.9714 309.575 16.0705 309.589 16.1676C309.602 16.2648 309.645 16.3557 309.71 16.429C309.775 16.5022 309.861 16.5545 309.956 16.5791C310.051 16.6037 310.151 16.5997 310.243 16.5674C310.336 16.5351 310.417 16.4761 310.476 16.3978C310.535 16.3195 310.57 16.2254 310.575 16.1274C310.583 15.9961 310.538 15.8673 310.45 15.7691C310.363 15.671 310.24 15.6115 310.109 15.6037Z" fill="white"/>
<path d="M308.111 20.5223C308.007 20.454 307.884 20.4181 307.76 20.4192C307.635 20.4203 307.513 20.4584 307.41 20.5287C307.307 20.5989 307.227 20.6982 307.18 20.8139C307.134 20.9296 307.122 21.0565 307.148 21.1787C307.173 21.3008 307.234 21.4127 307.323 21.5001C307.412 21.5876 307.525 21.6467 307.648 21.67C307.77 21.6933 307.897 21.6797 308.012 21.631C308.127 21.5823 308.224 21.5006 308.293 21.3963C308.338 21.327 308.37 21.2494 308.385 21.1679C308.401 21.0865 308.4 21.0028 308.383 20.9216C308.366 20.8404 308.333 20.7634 308.287 20.6949C308.24 20.6264 308.18 20.5677 308.111 20.5223Z" fill="white"/>
<path d="M294.034 25.1535C293.952 25.0997 293.856 25.0714 293.758 25.0722C293.66 25.073 293.564 25.1029 293.483 25.1581C293.402 25.2132 293.339 25.2912 293.302 25.3821C293.265 25.4731 293.256 25.5729 293.276 25.6689C293.296 25.765 293.344 25.853 293.414 25.9218C293.484 25.9906 293.573 26.0371 293.669 26.0555C293.765 26.0739 293.865 26.0633 293.955 26.025C294.046 25.9868 294.123 25.9226 294.176 25.8406C294.212 25.7861 294.237 25.7252 294.249 25.6611C294.261 25.5971 294.261 25.5313 294.248 25.4675C294.234 25.4037 294.209 25.3432 294.172 25.2893C294.135 25.2354 294.088 25.1893 294.034 25.1535Z" fill="white"/>
<path d="M304.431 25.1016C304.343 25.1457 304.271 25.2149 304.222 25.3003C304.174 25.3857 304.152 25.4835 304.159 25.5813C304.167 25.6792 304.203 25.7727 304.263 25.85C304.324 25.9273 304.406 25.9849 304.499 26.0156C304.592 26.0464 304.692 26.0487 304.787 26.0225C304.881 25.9963 304.966 25.9426 305.03 25.8682C305.094 25.7939 305.135 25.7022 305.147 25.6048C305.158 25.5074 305.141 25.4087 305.097 25.3211C305.068 25.2629 305.027 25.211 304.978 25.1684C304.929 25.1259 304.871 25.0935 304.81 25.0731C304.748 25.0527 304.682 25.0447 304.617 25.0496C304.552 25.0545 304.489 25.0721 304.431 25.1016Z" fill="white"/>
<path d="M298.669 20.0958C298.856 19.8104 298.943 19.4708 298.915 19.1307C298.887 18.7906 298.747 18.4695 298.516 18.2182C298.285 17.9669 297.977 17.7997 297.641 17.7432C297.304 17.6866 296.959 17.744 296.658 17.906C296.358 18.0681 296.12 18.3257 295.983 18.6381C295.846 18.9504 295.816 19.2996 295.9 19.6305C295.983 19.9613 296.175 20.2549 296.444 20.4647C296.713 20.6745 297.044 20.7885 297.386 20.7888C297.64 20.7896 297.891 20.7267 298.116 20.6056C298.34 20.4846 298.53 20.3093 298.669 20.0958Z" fill="white"/>
<path d="M295.605 22.4495C295.478 22.3666 295.33 22.3232 295.178 22.3246C295.027 22.3261 294.879 22.3724 294.754 22.4577C294.629 22.543 294.532 22.6635 294.476 22.804C294.419 22.9444 294.405 23.0985 294.436 23.2468C294.467 23.395 294.541 23.5308 294.649 23.6369C294.757 23.743 294.894 23.8147 295.043 23.8429C295.192 23.8711 295.346 23.8546 295.485 23.7954C295.625 23.7362 295.743 23.637 295.826 23.5103C295.937 23.3403 295.977 23.1331 295.935 22.9342C295.894 22.7353 295.775 22.561 295.605 22.4495Z" fill="white"/>
<path d="M299.18 25.3848C299.056 25.3777 298.932 25.4077 298.824 25.471C298.717 25.5343 298.631 25.6281 298.576 25.7405C298.522 25.8528 298.502 25.9788 298.52 26.1023C298.537 26.2259 298.591 26.3415 298.674 26.4347C298.757 26.5278 298.866 26.5942 298.986 26.6255C299.107 26.6568 299.235 26.6516 299.352 26.6105C299.47 26.5694 299.573 26.4943 299.648 26.3947C299.723 26.2951 299.767 26.1755 299.775 26.0509C299.779 25.9682 299.768 25.8853 299.74 25.807C299.713 25.7287 299.671 25.6566 299.616 25.5947C299.56 25.5329 299.494 25.4825 299.419 25.4465C299.344 25.4104 299.263 25.3895 299.18 25.3848Z" fill="white"/>
<path d="M299.187 21.4147C299.009 21.4039 298.832 21.4462 298.678 21.5362C298.523 21.6263 298.4 21.76 298.322 21.9205C298.244 22.0811 298.215 22.2611 298.239 22.4379C298.264 22.6147 298.34 22.7803 298.459 22.9137C298.577 23.0471 298.733 23.1423 298.905 23.1872C299.078 23.2321 299.26 23.2248 299.429 23.1661C299.597 23.1075 299.745 23.0001 299.852 22.8576C299.96 22.7151 300.023 22.5439 300.033 22.3657C300.046 22.1276 299.965 21.8937 299.807 21.7154C299.648 21.5371 299.425 21.429 299.187 21.4147Z" fill="white"/>
<path d="M302.875 22.3884C302.74 22.457 302.628 22.5643 302.553 22.6965C302.479 22.8288 302.446 22.9801 302.457 23.1314C302.469 23.2827 302.525 23.427 302.619 23.5463C302.713 23.6655 302.84 23.7542 302.984 23.8011C303.129 23.8481 303.284 23.8512 303.43 23.81C303.576 23.7689 303.706 23.6853 303.805 23.57C303.903 23.4546 303.965 23.3126 303.983 23.1619C304.001 23.0112 303.974 22.8587 303.905 22.7235C303.859 22.6338 303.796 22.554 303.72 22.4886C303.643 22.4232 303.555 22.3735 303.459 22.3424C303.364 22.3112 303.263 22.2993 303.162 22.3072C303.062 22.3151 302.964 22.3427 302.875 22.3884Z" fill="white"/>
<rect x="475" width="32" height="32" rx="8" fill="#8247E5"/>
<path d="M496.431 12.406C496.038 12.174 495.526 12.174 495.093 12.406L492.023 14.1845L489.937 15.3444L486.867 17.1229C486.473 17.3548 485.962 17.3548 485.529 17.1229L483.088 15.731C482.695 15.499 482.419 15.0737 482.419 14.6098V11.8647C482.419 11.4008 482.655 10.9755 483.088 10.7435L485.489 9.3903C485.883 9.15832 486.395 9.15832 486.827 9.3903L489.228 10.7435C489.622 10.9755 489.898 11.4008 489.898 11.8647V13.6432L491.984 12.4447V10.6662C491.984 10.2022 491.748 9.77692 491.315 9.54495L486.867 6.9932C486.473 6.76122 485.962 6.76122 485.529 6.9932L481.002 9.54495C480.569 9.77692 480.333 10.2022 480.333 10.6662V15.8083C480.333 16.2723 480.569 16.6976 481.002 16.9296L485.529 19.4813C485.922 19.7133 486.434 19.7133 486.867 19.4813L489.937 17.7415L492.023 16.5429L495.093 14.8031C495.487 14.5711 495.998 14.5711 496.431 14.8031L498.832 16.1563C499.226 16.3883 499.501 16.8136 499.501 17.2775V20.0226C499.501 20.4866 499.265 20.9118 498.832 21.1438L496.431 22.5357C496.038 22.7677 495.526 22.7677 495.093 22.5357L492.692 21.1825C492.299 20.9505 492.023 20.5252 492.023 20.0612V18.2828L489.937 19.4813V21.2598C489.937 21.7237 490.173 22.149 490.606 22.381L495.133 24.9328C495.526 25.1647 496.038 25.1647 496.471 24.9328L500.997 22.381C501.391 22.149 501.666 21.7237 501.666 21.2598V16.1176C501.666 15.6537 501.43 15.2284 500.997 14.9965L496.431 12.406Z" fill="white"/>
<rect x="667" width="32" height="32" rx="8" fill="#1A4199"/>
<path d="M677.874 6.88402L688.329 12.9252V19.0799L672.337 9.84786L677.47 6.88402C677.596 6.80835 677.747 6.80835 677.874 6.88402Z" fill="#3CA9E5"/>
<path d="M688.329 6.75781L683.007 9.83516L688.329 12.9125V6.75781Z" fill="#2853C3"/>
<path d="M688.332 6.66943L693.465 9.63327C693.591 9.70894 693.667 9.84768 693.667 9.98641V22.0561L688.332 18.9788V6.66943Z" fill="#60BEFF"/>
<path d="M693.664 22.1572L688.531 25.121C688.405 25.1967 688.253 25.1967 688.115 25.121L677.659 19.0799V12.9126L693.664 22.1572Z" fill="#2853C3"/>
<path d="M672.337 9.84766V21.9174C672.337 22.0688 672.413 22.2075 672.539 22.2705L677.672 25.2344V12.9124L672.337 9.84766Z" fill="#60BEFF"/>
<path d="M677.672 25.2345L682.994 22.1572L677.672 19.0798V25.2345Z" fill="#3CA9E5"/>
<rect y="70" width="32" height="32" rx="8" fill="#2E3148"/>
<path d="M15.9713 93.9343C20.4406 93.9343 24.0637 90.3695 24.0637 85.972C24.0637 81.5745 20.4406 78.0096 15.9713 78.0096C11.502 78.0096 7.87891 81.5745 7.87891 85.972C7.87891 90.3695 11.502 93.9343 15.9713 93.9343Z" fill="#1B1E36"/>
<path d="M15.9996 74C14.4941 74 13.2734 79.3726 13.2734 86C13.2734 92.6274 14.4941 98 15.9996 98C17.505 98 18.7257 92.6274 18.7257 86C18.7257 79.3726 17.505 74 15.9996 74ZM16.1878 97.3228C16.0157 97.5487 15.8435 97.3792 15.8435 97.3792C15.1502 96.5888 14.8035 95.1204 14.8035 95.1204C13.5909 91.2805 13.8795 83.0358 13.8795 83.0358C14.4494 76.4903 15.4861 74.9441 15.8389 74.6008C15.875 74.5658 15.9224 74.5444 15.9729 74.5404C16.0234 74.5363 16.0737 74.55 16.115 74.5789C16.6268 74.9358 17.0562 76.4283 17.0562 76.4283C18.324 81.0589 18.2092 85.4071 18.2092 85.4071C18.324 89.1906 17.5739 93.4259 17.5739 93.4259C16.9965 96.6446 16.1878 97.3228 16.1878 97.3228Z" fill="#6F7390"/>
<path d="M26.5787 80.0282C25.8292 78.743 20.4859 80.3749 14.6405 83.6729C8.79512 86.9709 4.67186 90.6865 5.42085 91.9713C6.16983 93.256 11.5137 91.6246 17.3591 88.3266C23.2044 85.0287 27.3277 81.313 26.5787 80.0282ZM6.11237 91.795C5.82541 91.7594 5.89023 91.5273 5.89023 91.5273C6.24224 90.5425 7.36243 89.5159 7.36243 89.5159C10.1454 86.5698 17.5578 82.7134 17.5578 82.7134C23.611 79.9424 25.4912 80.0593 25.9682 80.1885C26.0172 80.202 26.0597 80.232 26.0883 80.2734C26.1169 80.3147 26.1297 80.3647 26.1244 80.4144C26.0671 81.0292 24.9622 82.138 24.9622 82.138C21.5132 85.5256 17.6226 87.5919 17.6226 87.5919C14.3443 89.5734 10.2373 91.0399 10.2373 91.0399C7.11228 92.1479 6.11248 91.795 6.11248 91.795H6.11237Z" fill="#6F7390"/>
<path d="M26.5521 92.0144C27.3075 90.7325 23.1946 86.9998 17.3698 83.6771C11.545 80.3543 6.20236 78.7021 5.44769 79.9862C4.69302 81.2703 8.80522 85.0008 14.6334 88.3235C20.4615 91.6463 25.7975 93.2985 26.5521 92.0144ZM5.9482 80.4815C5.83663 80.2212 6.07216 80.1586 6.07216 80.1586C7.11491 79.9648 8.57962 80.4063 8.57962 80.4063C12.5644 81.2992 19.6698 85.6784 19.6698 85.6784C25.1405 89.445 25.9795 91.1041 26.1053 91.575C26.1181 91.6233 26.1131 91.6745 26.0913 91.7196C26.0694 91.7646 26.0321 91.8006 25.9859 91.8213C25.4154 92.0782 23.8876 91.6953 23.8876 91.6953C19.1785 90.453 15.4124 88.1767 15.4124 88.1767C12.0285 86.381 8.68249 83.6179 8.68249 83.6179C6.13999 81.5116 5.94898 80.4844 5.94898 80.4844L5.9482 80.4815Z" fill="#6F7390"/>
<path d="M15.9709 87.3837C16.7634 87.3837 17.4058 86.7516 17.4058 85.9719C17.4058 85.1922 16.7634 84.5602 15.9709 84.5602C15.1785 84.5602 14.5361 85.1922 14.5361 85.9719C14.5361 86.7516 15.1785 87.3837 15.9709 87.3837Z" fill="#B7B9C8"/>
<path d="M21.8547 81.3976C22.3143 81.3976 22.6869 81.0184 22.6869 80.5505C22.6869 80.0827 22.3143 79.7035 21.8547 79.7035C21.3951 79.7035 21.0225 80.0827 21.0225 80.5505C21.0225 81.0184 21.3951 81.3976 21.8547 81.3976Z" fill="#B7B9C8"/>
<path d="M8.19452 84.2778C8.65414 84.2778 9.02674 83.8986 9.02674 83.4308C9.02674 82.963 8.65414 82.5837 8.19452 82.5837C7.7349 82.5837 7.3623 82.963 7.3623 83.4308C7.3623 83.8986 7.7349 84.2778 8.19452 84.2778Z" fill="#B7B9C8"/>
<path d="M14.2785 94.6685C14.7382 94.6685 15.1108 94.2893 15.1108 93.8215C15.1108 93.3537 14.7382 92.9745 14.2785 92.9745C13.8189 92.9745 13.4463 93.3537 13.4463 93.8215C13.4463 94.2893 13.8189 94.6685 14.2785 94.6685Z" fill="#B7B9C8"/>
<rect x="192" y="70" width="32" height="32" rx="10.6667" fill="#E9E9E9"/>
<g clip-path="url(#clip0_763_651)">
<path d="M207.999 74L207.843 74.5164V89.5007L207.999 89.6524L215.155 85.541L207.999 74Z" fill="#343434"/>
<path d="M207.999 74L200.843 85.541L207.999 89.6524V82.3795V74Z" fill="#8C8C8C"/>
<path d="M207.998 90.9693L207.91 91.0737V96.4115L207.998 96.6615L215.158 86.86L207.998 90.9693Z" fill="#3C3C3B"/>
<path d="M207.999 96.6616V90.9693L200.843 86.86L207.999 96.6616Z" fill="#8C8C8C"/>
<path d="M207.999 89.6524L215.155 85.541L207.999 82.3795V89.6524Z" fill="#141414"/>
<path d="M200.843 85.541L207.998 89.6524V82.3795L200.843 85.541Z" fill="#393939"/>
</g>
<rect x="384" y="70" width="32" height="32" rx="8" fill="#1A4199"/>
<path d="M394.874 76.884L405.329 82.9252V89.0799L389.337 79.8479L394.47 76.884C394.596 76.8084 394.747 76.8084 394.874 76.884Z" fill="#3CA9E5"/>
<path d="M405.329 76.7578L400.007 79.8352L405.329 82.9125V76.7578Z" fill="#2853C3"/>
<path d="M405.332 76.6694L410.465 79.6333C410.591 79.7089 410.667 79.8477 410.667 79.9864V92.0561L405.332 88.9788V76.6694Z" fill="#60BEFF"/>
<path d="M410.664 92.1572L405.531 95.121C405.405 95.1967 405.253 95.1967 405.115 95.121L394.659 89.0799V82.9126L410.664 92.1572Z" fill="#2853C3"/>
<path d="M389.337 79.8477V91.9174C389.337 92.0688 389.413 92.2075 389.539 92.2705L394.672 95.2344V82.9124L389.337 79.8477Z" fill="#60BEFF"/>
<path d="M394.672 95.2345L399.994 92.1572L394.672 89.0798V95.2345Z" fill="#3CA9E5"/>
<rect x="576" y="70" width="32" height="32" rx="8" fill="#F5E8E8"/>
<path d="M592.476 74.9335C590.335 74.9419 588.284 75.7961 586.77 77.31C585.256 78.824 584.402 80.8749 584.394 83.0159C584.394 83.908 584.538 84.7943 584.82 85.6408C584.921 85.9182 585.125 86.1461 585.389 86.2778C585.654 86.4095 585.959 86.435 586.241 86.3489C586.514 86.2444 586.737 86.0398 586.865 85.7767C586.992 85.5136 587.015 85.2118 586.928 84.9326C586.689 84.2732 586.582 83.5729 586.614 82.8721C586.648 81.7421 587.01 80.6463 587.655 79.7183C588.301 78.7903 589.203 78.07 590.25 77.6451C591.298 77.2202 592.447 77.1091 593.556 77.3253C594.666 77.5415 595.689 78.0757 596.5 78.8628C597.312 79.6498 597.877 80.6559 598.127 81.7584C598.377 82.861 598.301 84.0124 597.909 85.0726C597.516 86.1328 596.824 87.0559 595.916 87.7297C595.008 88.4034 593.924 88.7987 592.795 88.8673C592.795 88.8673 591.661 88.9366 591.097 89.0058C590.889 89.0358 590.683 89.0767 590.479 89.1282C590.472 89.1353 590.464 89.1409 590.455 89.1448C590.446 89.1486 590.436 89.1506 590.426 89.1506C590.416 89.1506 590.406 89.1486 590.397 89.1448C590.388 89.1409 590.38 89.1353 590.373 89.1282C590.363 89.1152 590.358 89.0993 590.358 89.083C590.358 89.0666 590.363 89.0507 590.373 89.0377L590.549 88.0793L591.613 83.2874C591.675 83 591.62 82.7 591.46 82.4534C591.3 82.2068 591.049 82.0337 590.762 81.9723C590.474 81.9109 590.174 81.9661 589.928 82.1259C589.681 82.2856 589.508 82.5368 589.446 82.8242C589.446 82.8242 586.912 94.5538 586.912 94.6603C586.877 94.7973 586.87 94.94 586.891 95.0799C586.912 95.2198 586.96 95.3542 587.033 95.4751C587.107 95.5961 587.204 95.7012 587.318 95.7843C587.432 95.8675 587.562 95.927 587.7 95.9594H587.759C587.896 95.995 588.04 96.0026 588.181 95.9818C588.322 95.961 588.457 95.9122 588.578 95.8382C588.7 95.7643 588.805 95.6667 588.889 95.5512C588.972 95.4358 589.031 95.3048 589.063 95.1661C589.061 95.1484 589.061 95.1305 589.063 95.1128C589.095 94.9744 589.414 93.4144 589.414 93.4144C589.533 92.8393 589.824 92.3142 590.25 91.9097C590.675 91.5052 591.214 91.2406 591.794 91.1515C592.039 91.1142 593.067 91.045 593.067 91.045C595.111 90.8412 597.001 89.8659 598.352 88.3177C599.703 86.7696 600.413 84.7649 600.337 82.7117C600.262 80.6586 599.407 78.7113 597.947 77.2662C596.486 75.8212 594.53 74.987 592.476 74.9335V74.9335Z" fill="#1E1E1E"/>
<path d="M592.966 93.5677C592.791 93.5313 592.611 93.53 592.435 93.564C592.26 93.598 592.093 93.6666 591.944 93.7657C591.796 93.8648 591.668 93.9925 591.569 94.1413C591.471 94.2901 591.402 94.4571 591.369 94.6326C591.331 94.8049 591.328 94.983 591.359 95.1566C591.391 95.3302 591.456 95.496 591.551 95.6443C591.647 95.7927 591.77 95.9208 591.915 96.0213C592.06 96.1217 592.224 96.1926 592.396 96.2299H592.434C592.604 96.2709 592.78 96.2778 592.953 96.2501C593.125 96.2224 593.291 96.1607 593.439 96.0686C593.588 95.9764 593.717 95.8557 593.818 95.7134C593.92 95.5711 593.992 95.41 594.031 95.2395V95.165C594.092 94.813 594.015 94.4512 593.817 94.154C593.619 93.8569 593.314 93.647 592.966 93.5677Z" fill="#E6007A"/>
<defs>
<linearGradient id="paint0_linear_763_651" x1="-169.202" y1="52.6177" x2="877.071" y2="52.6177" gradientUnits="userSpaceOnUse">
<stop stop-color="#FFD94A"/>
<stop offset="0.520833" stop-color="#F74545"/>
<stop offset="1" stop-color="#95649D"/>
</linearGradient>
<clipPath id="clip0_763_651">
<rect width="14.3158" height="22.6667" fill="white" transform="translate(200.843 74)"/>
</clipPath>
</defs>
</svg>
