<svg width="18" height="18" viewBox="0 0 18 18" fill="none" xmlns="http://www.w3.org/2000/svg">
<g id="Telegram">
<path id="Vector" d="M13.4802 4.20969L3.24545 8.38948C2.54691 8.68624 2.55105 9.09877 3.11812 9.28272L5.67071 10.1263L6.64739 13.2969C6.76613 13.6439 6.70759 13.7815 7.05175 13.7815C7.31735 13.7815 7.43517 13.6533 7.5831 13.5003C7.67717 13.4028 8.23569 12.8279 8.85932 12.1859L11.5145 14.263C12.0031 14.5484 12.3559 14.4006 12.4775 13.7826L14.2204 5.08615C14.3989 4.32865 13.9477 3.98505 13.4802 4.20969ZM6.07131 9.93249L11.8249 6.08901C12.1121 5.90458 12.3754 6.00374 12.1592 6.20697L7.23267 10.9134L7.04085 13.0797L6.07131 9.93249Z" fill="white"/>
</g>
</svg>
