<svg width="24" height="24" viewBox="0 0 24 24" fill="none" xmlns="http://www.w3.org/2000/svg">
<g id="Telegram">
<path id="Vector" d="M18.3258 5.61292L3.87673 11.186C2.89056 11.5816 2.8964 12.1317 3.69698 12.377L7.30063 13.5017L8.67947 17.7292C8.8471 18.1918 8.76447 18.3754 9.25034 18.3754C9.6253 18.3754 9.79164 18.2044 10.0005 18.0004C10.1333 17.8704 10.9218 17.1038 11.8022 16.2478L15.5507 19.0174C16.2404 19.3979 16.7385 19.2008 16.9102 18.3768L19.3708 6.78153C19.6228 5.77154 18.9858 5.31341 18.3258 5.61292ZM7.86618 13.2433L15.9888 8.11869C16.3943 7.87277 16.7661 8.00498 16.4609 8.27596L9.50575 14.5512L9.23494 17.4396L7.86618 13.2433Z" fill="#2A3B51" fill-opacity="0.6"/>
</g>
</svg>
