<svg width="24" height="24" viewBox="0 0 24 24" fill="none" xmlns="http://www.w3.org/2000/svg">
<g id="Twitter">
<path id="Vector" fill-rule="evenodd" clip-rule="evenodd" d="M19.7721 8.08888C19.7789 8.26376 19.7812 8.43858 19.7812 8.61346C19.7812 13.9157 16.0513 20.0367 9.23073 20.0367C7.13556 20.0367 5.18736 19.369 3.5459 18.2322C3.83606 18.264 4.13074 18.2879 4.42994 18.2879C6.16712 18.2879 7.76713 17.6439 9.03629 16.5628C7.41366 16.5389 6.04352 15.3704 5.57098 13.7805C5.79783 13.8282 6.03145 13.8521 6.27036 13.8521C6.60724 13.8521 6.93433 13.8045 7.24785 13.7091C5.54986 13.3434 4.27092 11.7218 4.27092 9.77423C4.27092 9.75038 4.27092 9.74238 4.27092 9.72648C4.77135 10.0206 5.34412 10.2034 5.95232 10.2272C4.95598 9.50381 4.30105 8.2717 4.30105 6.88056C4.30105 6.14922 4.48343 5.4576 4.80449 4.8614C6.63286 7.2939 9.36639 8.89173 12.4481 9.05867C12.3848 8.76455 12.3524 8.4546 12.3524 8.14458C12.3524 5.92671 14.0127 4.13013 16.0611 4.13013C17.1275 4.13013 18.0907 4.61511 18.7667 5.39414C19.6131 5.21925 20.4059 4.88541 21.1234 4.42435C20.8453 5.36237 20.2582 6.14919 19.491 6.64204C20.2416 6.54665 20.9576 6.33218 21.6216 6.01421C21.1234 6.81709 20.4964 7.52447 19.7721 8.08888Z" fill="#2A3B51" fill-opacity="0.6"/>
</g>
</svg>
